<svg version="1.1" id="Layer_1" xmlns="http://www.w3.org/2000/svg" xmlns:xlink="http://www.w3.org/1999/xlink" x="0px" y="0px"
	 width="100%" viewBox="0 0 938 297" enable-background="new 0 0 938 297" xml:space="preserve">
<path fill="#FEFEFE" opacity="1.000000" stroke="none" 
	d="
M1.000000,6.000000 
	C1.000000,4.333635 1.000000,2.667270 1.000000,1.000679 
	C313.609772,1.000453 626.219543,1.000453 938.914673,1.000453 
	C938.914673,99.925117 938.914673,198.850327 938.914673,297.887756 
	C626.333374,297.887756 313.666687,297.887756 1.000007,297.891052 
	C1.000000,244.903732 1.000000,191.913116 1.352394,138.629028 
	C1.816038,138.819626 1.950596,139.299667 2.035226,139.788376 
	C10.306261,187.549072 48.981113,220.990234 96.030548,220.992813 
	C295.819733,221.003708 495.608948,220.998093 695.398132,220.998505 
	C697.168518,220.998505 698.938904,220.998489 700.998596,220.998489 
	C700.998596,218.966049 700.998596,217.494568 700.998596,216.023087 
	C700.998474,178.031448 701.028503,140.039780 700.990967,102.048187 
	C700.937805,48.231827 658.652466,6.002413 604.867065,6.001983 
	C403.578033,6.000373 202.289017,6.000515 1.000000,6.000000 
M725.128357,121.268463 
	C725.744080,125.888062 726.186951,130.538391 727.001770,135.122589 
	C737.478760,194.063858 796.541321,232.970398 854.627869,219.240463 
	C909.211365,206.338547 944.999634,152.759384 935.610840,97.620331 
	C935.021606,94.160110 932.989075,90.404671 930.508728,87.891113 
	C905.574707,62.622936 880.450684,37.541286 855.222534,12.566338 
	C853.145081,10.509704 850.049683,8.798132 847.194885,8.323241 
	C831.343018,5.686384 815.669128,6.863554 800.291870,11.633761 
	C753.391113,26.182959 723.788330,68.960602 725.128357,121.268463 
M825.527893,252.671738 
	C825.210083,253.292114 824.892273,253.912491 824.370361,254.931351 
	C822.530701,248.015747 820.827698,241.613800 819.159912,235.344208 
	C816.266724,235.344208 813.713745,235.344208 811.173828,235.344208 
	C811.173828,245.308334 811.173828,254.919495 811.173828,264.633698 
	C812.859619,264.633698 814.355591,264.633698 816.181580,264.633698 
	C816.181580,258.108459 816.181580,251.947495 816.181580,245.786530 
	C816.403076,245.759430 816.624573,245.732330 816.846130,245.705231 
	C818.381531,251.387634 819.916931,257.070038 821.403320,262.570984 
	C824.960388,263.778534 826.489258,262.689789 827.190674,259.242401 
	C828.115051,254.699234 829.656494,250.281631 830.932556,245.810043 
	C831.322021,245.896683 831.711487,245.983307 832.100952,246.069931 
	C832.100952,252.322678 832.100952,258.575409 832.100952,264.725403 
	C834.226562,264.725403 835.974854,264.725403 837.727173,264.725403 
	C837.727173,254.702576 837.727173,244.962616 837.727173,235.143524 
	C835.152100,235.143524 832.858154,235.143524 830.263123,235.143524 
	C828.758484,240.785400 827.270386,246.365387 825.527893,252.671738 
M386.649231,234.108398 
	C386.649231,243.973145 386.649231,253.837875 386.649231,263.746033 
	C387.888519,263.746033 389.284546,263.746033 390.953369,263.746033 
	C390.953369,257.239471 390.953369,250.982147 390.953369,244.724838 
	C391.228363,244.669571 391.503387,244.614304 391.778381,244.559036 
	C393.352936,250.340820 394.927490,256.122589 396.419952,261.603027 
	C400.259308,262.843170 401.553802,261.355652 402.224640,258.062347 
	C403.131226,253.611618 404.630554,249.281616 405.875580,244.899826 
	C406.192261,244.952896 406.508942,245.005981 406.825623,245.059067 
	C406.825623,251.234024 406.825623,257.408966 406.825623,263.667023 
	C409.087341,263.667023 410.948181,263.667023 412.686401,263.667023 
	C412.686401,253.588928 412.686401,243.852539 412.686401,234.169769 
	C410.058929,234.169769 407.754028,234.169769 405.320007,234.169769 
	C403.479401,240.756882 401.674255,247.217209 399.549652,254.820694 
	C398.079285,249.082916 396.568542,244.641678 395.870148,240.076172 
	C395.082947,234.930161 392.627411,232.906967 386.649231,234.108398 
M859.976440,235.044907 
	C854.733154,235.044907 849.489868,235.044907 844.265503,235.044907 
	C844.265503,245.294510 844.265503,254.997910 844.265503,265.009491 
	C849.319153,265.009491 854.102600,265.018158 858.886108,265.006958 
	C863.257324,264.996704 867.514526,264.343781 868.734314,259.332001 
	C869.979065,254.217361 866.899353,251.297699 862.540588,249.397446 
	C862.307617,249.295868 862.221680,248.857208 862.067261,248.575470 
	C862.522034,248.760559 862.976746,248.945633 863.431519,249.130722 
	C864.663452,246.233704 866.631653,243.412445 866.939453,240.420364 
	C867.317322,236.748001 863.876648,235.795731 859.976440,235.044907 
M143.995728,240.602921 
	C143.995728,248.365143 143.995728,256.127380 143.995728,264.142456 
	C146.041763,263.949005 147.442139,263.816589 149.105652,263.659302 
	C149.105652,257.245972 149.105652,251.174728 149.105652,243.780960 
	C152.844437,249.905853 156.091614,254.834702 158.917236,259.994415 
	C160.740417,263.323608 162.851273,265.053284 166.764603,263.557739 
	C166.764603,253.808167 166.764603,244.062119 166.764603,234.248123 
	C165.126740,234.248123 163.731522,234.248123 161.844910,234.248123 
	C161.844910,240.645905 161.844910,246.811737 161.844910,253.423691 
	C161.139389,252.727783 160.870483,252.548203 160.716446,252.297928 
	C157.756653,247.488831 154.629883,242.770020 151.925751,237.820496 
	C150.172195,234.610886 148.060974,233.078201 143.995728,234.420166 
	C143.995728,236.043961 143.995728,237.841888 143.995728,240.602921 
M341.557007,232.002258 
	C340.668121,234.855927 339.779236,237.709610 338.731445,241.073364 
	C337.548401,241.073364 335.738373,240.885605 333.980804,241.109650 
	C329.277588,241.709167 326.682526,244.663589 325.515015,249.101181 
	C324.022125,254.775558 325.331299,262.172821 329.194305,263.567291 
	C332.179016,264.644714 335.988800,263.436371 340.017395,263.211578 
	C341.322357,263.442749 343.443726,263.818604 346.007202,264.272766 
	C346.007202,253.986206 345.888428,244.511719 346.077271,235.043381 
	C346.136322,232.083084 344.784973,231.720123 341.557007,232.002258 
M6.931521,236.334351 
	C0.909601,242.274582 0.675407,249.446335 3.482777,256.648285 
	C6.249688,263.746460 12.634671,265.246918 19.552279,264.974640 
	C21.531820,264.896698 23.492186,264.411591 25.472569,264.257141 
	C28.852509,263.993530 29.771521,262.312683 28.596966,259.251038 
	C22.466469,261.061707 16.244736,263.268280 10.948365,257.653107 
	C7.773991,254.287674 7.264060,245.966812 9.946321,241.543594 
	C14.536773,233.973648 21.436138,237.499634 27.622551,238.419434 
	C28.828793,235.045578 27.631256,233.637161 24.397602,233.344299 
	C18.549383,232.814651 12.751261,232.326904 6.931521,236.334351 
M485.131927,262.769989 
	C489.782471,258.719055 490.027618,253.505035 488.504242,248.162888 
	C487.313629,243.987839 484.100372,241.639771 479.755371,241.066315 
	C474.712738,240.400772 470.179138,242.753815 468.161194,246.997101 
	C465.896240,251.759781 466.837036,258.430389 470.264526,261.911163 
	C473.843414,265.545563 478.498749,265.965088 485.131927,262.769989 
M230.393875,260.972260 
	C235.228882,265.539124 240.994080,266.333344 245.656494,263.074921 
	C249.968933,260.061096 251.610596,253.320923 249.388596,247.752075 
	C247.442734,242.875229 242.805283,240.305603 237.336624,241.073975 
	C229.054947,242.237640 225.664917,251.093658 230.393875,260.972260 
M623.019958,250.030014 
	C620.622986,242.525864 615.044556,239.330780 608.343567,241.623917 
	C602.115173,243.755325 599.210510,251.235870 601.923340,258.158600 
	C604.236084,264.060608 610.690552,266.703033 616.699829,264.077667 
	C622.538269,261.526947 623.575439,256.541107 623.019958,250.030014 
M693.635132,264.576447 
	C694.653931,263.801239 695.672729,263.026001 695.698425,263.006500 
	C698.967529,263.765564 701.380005,264.539612 703.837952,264.731598 
	C704.386780,264.774445 705.095215,262.773438 705.730164,261.713409 
	C700.822754,259.445068 703.258118,255.052490 703.132019,251.660507 
	C702.786804,242.372543 698.770020,239.197952 689.796082,241.516663 
	C686.903442,242.264053 685.833008,243.544617 686.971313,246.388031 
	C696.035889,244.009003 696.728027,244.323837 696.294006,250.593918 
	C687.442932,251.836136 684.762512,253.791367 685.003845,258.829437 
	C685.204041,263.007904 687.513489,264.763580 693.635132,264.576447 
M279.495056,262.913971 
	C283.139557,266.161438 286.586884,265.513458 288.781281,263.171143 
	C292.154816,263.865753 294.573639,264.549408 297.028381,264.722107 
	C297.557678,264.759338 298.216553,262.954437 298.815735,261.998047 
	C294.140198,259.486359 296.214203,255.071991 296.104767,251.473083 
	C295.826660,242.327011 291.584808,239.151947 282.621826,241.568985 
	C279.637665,242.373734 278.959259,243.763306 280.024780,246.454773 
	C288.721069,243.862183 289.965546,244.458450 289.151825,250.694534 
	C278.876740,251.863388 276.406067,254.689636 279.495056,262.913971 
M181.953491,250.835175 
	C180.797546,250.924957 179.628159,250.932755 178.488190,251.119873 
	C175.045868,251.684906 171.590927,252.876038 171.301865,256.771393 
	C171.132660,259.051605 172.187805,262.840820 173.743683,263.511322 
	C176.326691,264.624481 179.756592,263.772461 182.829773,263.748199 
	C185.102097,263.840942 187.519699,264.544434 189.974152,264.713806 
	C190.452774,264.746826 191.074554,262.704712 191.630310,261.619751 
	C186.752213,259.296051 189.272324,254.916199 189.137650,251.528412 
	C188.772644,242.346298 184.644318,239.169571 175.679001,241.550720 
	C172.721893,242.336105 171.935974,243.701385 172.990936,246.435623 
	C181.705292,243.941086 182.277878,244.181137 181.953491,250.835175 
M33.556793,245.331192 
	C30.943541,250.632523 30.561089,256.005280 34.250679,260.843567 
	C37.842083,265.553131 43.126648,265.693634 48.348614,264.448059 
	C49.628933,264.142700 50.537327,262.278046 51.616711,261.130249 
	C42.145996,262.196075 39.468624,261.085724 38.387852,254.791748 
	C42.560123,254.791748 46.670033,254.791748 50.996078,254.791748 
	C51.255863,249.485672 51.322388,244.490448 46.117241,241.954620 
	C41.633938,239.770477 37.367146,240.775131 33.556793,245.331192 
M125.287498,254.886887 
	C126.248367,254.303864 127.869019,253.886322 128.063461,253.111069 
	C129.365173,247.921188 125.730316,242.014572 120.937202,241.107361 
	C115.265930,240.033951 110.232376,243.386139 109.027084,249.039108 
	C106.693344,259.984619 114.542892,267.498566 125.353828,264.465515 
	C126.652016,264.101288 127.540405,262.276459 128.618744,261.128601 
	C119.160324,262.192932 116.513428,261.100067 115.372597,254.888092 
	C118.397537,254.888092 121.375771,254.888092 125.287498,254.886887 
M352.345306,259.761658 
	C356.147614,265.260162 361.607147,265.799896 367.431152,264.424347 
	C368.670380,264.131683 369.532959,262.244324 370.569031,261.091675 
	C361.132507,262.208588 358.317719,261.016327 357.480774,254.756592 
	C361.636230,254.756592 365.744690,254.756592 370.250183,254.756592 
	C370.142059,252.720505 370.173279,251.072449 369.947357,249.460419 
	C369.180450,243.988022 366.181305,241.121323 361.228455,240.991104 
	C356.105591,240.856415 351.859894,243.766327 351.216522,248.802475 
	C350.791626,252.128632 351.688721,255.623672 352.345306,259.761658 
M493.179108,248.278030 
	C493.052856,249.266525 492.863098,250.251648 492.810181,251.244064 
	C492.259674,261.569275 499.665283,267.458588 509.596069,264.402954 
	C510.831329,264.022858 511.653442,262.299988 512.666992,261.199341 
	C503.935455,261.845123 499.867554,261.368866 499.287689,254.802917 
	C503.530884,254.802917 507.740173,254.802917 511.901642,254.802917 
	C512.333984,246.602036 510.314911,242.488754 505.546265,241.235535 
	C500.540436,239.919952 496.338470,242.107498 493.179108,248.278030 
M527.916687,249.950256 
	C526.187622,261.531128 534.205566,266.815887 544.304993,264.473022 
	C545.596558,264.173431 546.527161,262.318359 547.624939,261.183838 
	C538.094482,262.159302 535.574524,261.120422 534.319641,254.820221 
	C538.500244,254.820221 542.610168,254.820221 546.662964,254.820221 
	C547.665344,247.125305 545.407410,242.406586 540.370850,241.195480 
	C534.779541,239.850967 530.431030,242.635574 527.916687,249.950256 
M55.997673,250.544708 
	C55.997673,254.969391 55.997673,259.394073 55.997673,263.735352 
	C58.368420,263.735352 60.123615,263.735352 61.566151,263.735352 
	C64.381355,257.927002 58.165768,249.614532 68.285965,245.287918 
	C68.285965,251.947906 68.285965,257.758911 68.285965,263.667664 
	C71.078735,263.667664 72.937073,263.667664 74.958031,263.667664 
	C74.958031,257.869568 75.187439,252.390762 74.893059,246.940247 
	C74.602684,241.563858 70.365807,239.477997 65.760551,242.161865 
	C64.667786,242.798721 63.688702,243.630630 62.657326,244.372818 
	C62.663212,243.836731 62.669098,243.300629 62.674984,242.764526 
	C60.574234,242.464706 58.473484,242.164871 55.997673,241.811508 
	C55.997673,244.946411 55.997673,247.258362 55.997673,250.544708 
M262.696899,243.861542 
	C260.357605,243.067856 258.018311,242.274155 255.236572,241.330353 
	C255.236572,249.484009 255.236572,256.566833 255.236572,263.629333 
	C257.367371,263.629333 259.232483,263.629333 260.569672,263.629333 
	C263.176544,257.711761 257.587891,249.643982 265.320435,245.952591 
	C266.069214,246.081375 266.817993,246.210144 267.566772,246.338928 
	C267.566772,252.178268 267.566772,258.017609 267.566772,264.072998 
	C270.262726,263.946533 272.010834,263.864532 274.001526,263.771149 
	C274.001526,258.599731 274.339417,253.758575 273.864990,248.998398 
	C273.611877,246.458481 272.575195,242.896683 270.756104,241.926666 
	C268.987762,240.983704 265.768127,242.762329 262.696899,243.861542 
M647.002075,249.795212 
	C645.929260,247.034744 645.548706,242.821030 643.602600,241.894012 
	C641.341064,240.816757 637.707031,242.620895 634.673035,243.173645 
	C632.890930,242.722595 630.738403,242.177765 628.202881,241.535995 
	C628.202881,249.409927 628.202881,256.484070 628.202881,263.674805 
	C630.271362,263.674805 632.137695,263.674805 633.560913,263.674805 
	C636.324585,257.808716 630.186951,249.535248 640.435547,245.299667 
	C640.435547,252.046783 640.435547,257.878693 640.435547,263.784454 
	C643.100464,263.784454 644.847473,263.784454 646.528381,263.784454 
	C646.724731,263.280334 646.936951,262.986328 646.939758,262.690369 
	C646.977600,258.702332 646.986206,254.714005 647.002075,249.795212 
M680.751038,241.375214 
	C678.427246,241.258728 676.089600,240.922638 673.782227,241.067581 
	C667.259460,241.477310 663.477844,245.132080 663.027893,251.320740 
	C662.090271,264.216095 672.318237,266.590820 680.918213,264.248291 
	C681.882019,263.985779 682.388184,262.043365 682.439636,261.960022 
	C678.062256,260.622314 673.398804,260.529846 671.330811,258.166382 
	C669.497925,256.071594 669.377930,250.969238 670.580688,248.051605 
	C672.850220,242.546509 678.280945,245.661957 683.277405,245.626083 
	C682.566223,243.991074 682.054932,242.815689 680.751038,241.375214 
M201.877014,258.300323 
	C201.816391,254.652100 200.266556,249.531647 202.060608,247.716904 
	C204.468918,245.280807 209.461426,245.399445 213.806381,244.305023 
	C213.678177,243.981400 213.564362,242.428452 212.755997,241.855606 
	C206.759033,237.605988 195.118378,242.769424 194.153519,250.191208 
	C192.472244,263.123596 201.885101,266.819244 211.784119,264.290527 
	C212.799789,264.031067 213.397873,262.136902 213.683517,261.727234 
	C209.370483,260.682404 205.869095,259.834198 201.877014,258.300323 
M441.545258,265.021057 
	C448.871216,264.599884 449.054626,264.466370 448.413574,261.974609 
	C444.032867,260.621490 439.373749,260.515686 437.317596,258.148712 
	C435.490997,256.045990 435.382507,250.950363 436.590179,248.035217 
	C438.865814,242.542130 444.298584,245.676910 449.638062,245.610870 
	C448.516113,243.816681 447.964417,241.819031 447.022797,241.614288 
	C441.899353,240.500153 436.578430,240.103485 432.351532,243.961105 
	C428.335510,247.626297 428.245667,252.526810 429.654297,257.396271 
	C431.222351,262.816986 435.374664,264.830200 441.545258,265.021057 
M551.069275,246.944565 
	C547.310364,259.359406 554.559753,267.572266 566.794739,264.569183 
	C568.122925,264.243164 569.094543,262.464569 570.231567,261.359772 
	C565.195129,260.897705 560.411926,262.850555 558.064819,258.161682 
	C556.678162,255.391418 556.293762,251.132004 557.403320,248.305832 
	C559.692444,242.475311 565.281616,245.726440 570.775574,245.582245 
	C569.502014,243.706497 568.985596,242.013901 567.926453,241.543671 
	C562.745117,239.243256 555.293762,241.500534 551.069275,246.944565 
M87.618408,241.880371 
	C87.245178,240.515076 86.871956,239.149780 86.473251,237.691284 
	C84.636063,237.856155 82.991577,238.003754 80.097153,238.263519 
	C80.323929,241.666077 80.623299,244.930374 80.737694,248.201141 
	C80.865631,251.858978 80.641457,255.536041 80.906059,259.180389 
	C81.232079,263.670532 85.477783,266.366974 89.456589,264.771423 
	C90.080116,264.521393 90.908676,263.675781 90.873322,263.158081 
	C90.824554,262.443970 90.036034,261.785431 89.579529,261.093109 
	C88.717072,259.785126 87.260658,258.528595 87.126854,257.146545 
	C86.777573,253.538788 87.009239,249.874786 87.009239,247.323105 
	C88.827957,245.810913 89.907593,244.913254 90.987236,244.015564 
	C90.160347,243.337448 89.333466,242.659317 87.618408,241.880371 
M580.007568,248.754501 
	C580.722595,247.792557 581.398132,246.797516 582.166138,245.879868 
	C582.707031,245.233536 583.651123,244.785706 583.890869,244.072861 
	C584.064636,243.556122 583.543152,242.577469 583.045776,242.106934 
	C581.691467,240.825684 580.185486,239.704773 577.914978,237.844727 
	C577.596741,237.873337 575.955322,238.020966 573.066772,238.280746 
	C573.304077,241.685989 573.617493,244.951584 573.736694,248.224228 
	C573.869690,251.877258 573.641479,255.550201 573.907166,259.189911 
	C574.234253,263.672058 578.472290,266.360748 582.451843,264.772675 
	C583.075867,264.523651 583.906372,263.683533 583.873352,263.165619 
	C583.827820,262.450989 583.047974,261.785706 582.590271,261.094208 
	C581.727173,259.790131 580.361206,258.568390 580.122559,257.157196 
	C579.712769,254.732574 580.007751,252.188828 580.007568,248.754501 
M309.221741,255.461731 
	C309.221741,247.735596 309.221741,240.009460 309.221741,232.229385 
	C306.876221,232.229385 305.134155,232.229385 303.370605,232.229385 
	C303.370605,242.938385 303.370605,253.418091 303.370605,264.058777 
	C305.505005,263.953827 307.253876,263.867828 309.221802,263.771027 
	C309.221802,261.051819 309.221802,258.748688 309.221741,255.461731 
M517.002441,242.526001 
	C517.002441,249.599396 517.002441,256.672791 517.002441,263.764160 
	C519.303711,263.764160 521.051575,263.764160 522.831787,263.764160 
	C522.831787,253.056381 522.831787,242.584808 522.831787,231.938339 
	C520.690002,232.052460 518.949097,232.145233 517.002441,232.248962 
	C517.002441,235.608566 517.002441,238.573639 517.002441,242.526001 
M801.576416,235.003998 
	C800.720764,235.660110 799.131958,236.303192 799.120056,236.974304 
	C798.956177,246.206909 799.009460,255.443390 799.009460,264.616547 
	C801.376099,264.616547 803.237976,264.616547 805.220947,264.616547 
	C805.220947,255.619370 805.320862,246.998367 805.101440,238.385529 
	C805.072144,237.237228 803.423950,236.130188 801.576416,235.003998 
M460.210999,247.890778 
	C461.725555,247.058197 463.240143,246.225616 465.191040,245.153183 
	C465.090118,244.060165 464.952698,242.571686 464.882385,241.810226 
	C460.621460,242.007339 456.984253,242.175598 453.365509,242.342987 
	C453.365509,249.555161 453.365509,256.731079 453.365509,264.062866 
	C455.502014,263.959503 457.252838,263.874817 458.925049,263.793884 
	C459.223328,258.451843 459.497772,253.536255 460.210999,247.890778 
M93.996712,245.731308 
	C93.996712,251.789200 93.996712,257.847107 93.996712,264.071014 
	C96.440079,263.955231 98.194267,263.872131 99.134224,263.827576 
	C102.964249,257.813171 95.248634,248.618103 105.944542,245.418396 
	C105.944542,244.115494 105.944542,242.682693 105.944542,242.000275 
	C102.504456,242.000275 99.326248,241.812622 96.198753,242.127914 
	C95.383736,242.210068 94.726776,243.860016 93.996712,245.731308 
M590.882996,241.997299 
	C589.646423,242.063492 588.409912,242.129700 587.299561,242.189133 
	C587.299561,249.701523 587.299561,256.755371 587.299561,263.744141 
	C589.358154,263.744141 591.110474,263.744141 592.521667,263.744141 
	C595.660278,257.792480 588.475281,248.747055 599.197998,245.282028 
	C599.089478,244.069351 598.956055,242.578842 598.870056,241.617905 
	C596.096863,241.766495 593.891479,241.884659 590.882996,241.997299 
M222.467194,263.986267 
	C223.046936,263.379486 224.119171,262.781799 224.130615,262.164459 
	C224.252625,255.589005 224.206390,249.010437 224.206390,242.337097 
	C221.911850,242.337097 220.059982,242.337097 218.003281,242.337097 
	C218.003281,248.777740 218.164673,254.893066 217.934326,260.993622 
	C217.821320,263.986389 219.289398,264.242279 222.467194,263.986267 
M659.221741,257.433350 
	C659.221741,252.373322 659.221741,247.313309 659.221741,242.242065 
	C656.842346,242.242065 655.104919,242.242065 653.215637,242.242065 
	C653.215637,249.515717 653.215637,256.550812 653.215637,263.661530 
	C655.293091,263.661530 657.151062,263.661530 659.221802,263.661530 
	C659.221802,261.688110 659.221802,260.047974 659.221741,257.433350 
M425.221741,258.407654 
	C425.221741,253.018738 425.221741,247.629837 425.221741,242.248779 
	C422.834747,242.248779 421.095947,242.248779 419.221252,242.248779 
	C419.221252,249.529327 419.221252,256.564240 419.221252,263.796753 
	C421.179108,263.796753 422.919556,263.796753 424.989777,263.796753 
	C425.071014,262.251892 425.146393,260.818085 425.221741,258.407654 
M610.931458,236.752136 
	C612.344727,237.267929 613.757996,237.783707 615.843933,238.545013 
	C611.576599,230.609390 611.575012,230.608322 606.348206,231.841751 
	C607.777466,233.364410 609.114319,234.788620 610.931458,236.752136 
M659.080933,237.342361 
	C659.080933,235.956726 659.080933,234.571075 659.080933,233.262512 
	C656.750732,233.262512 655.014771,233.262512 653.261963,233.262512 
	C653.261963,234.912292 653.261963,236.299927 653.261963,237.917587 
	C655.128540,237.917587 656.741882,237.917587 659.080933,237.342361 
M420.695160,233.011490 
	C419.970917,234.425400 419.246674,235.839325 418.304108,237.679474 
	C421.328644,237.679474 423.194336,237.679474 424.976379,237.679474 
	C425.593964,234.577820 425.464630,232.320114 420.695160,233.011490 
M218.100449,233.677963 
	C218.100449,235.069672 218.100449,236.461395 218.100449,237.727661 
	C220.448090,237.727661 222.194885,237.727661 223.929092,237.727661 
	C223.929092,236.071442 223.929092,234.687515 223.929092,233.081909 
	C222.028564,233.081909 220.411469,233.081909 218.100449,233.677963 
z"/>
<path fill="#01448F" opacity="1.000000" stroke="none" 
	d="
M1.000000,6.468657 
	C202.289017,6.000515 403.578033,6.000373 604.867065,6.001983 
	C658.652466,6.002413 700.937805,48.231827 700.990967,102.048187 
	C701.028503,140.039780 700.998474,178.031448 700.998596,216.023087 
	C700.998596,217.494568 700.998596,218.966049 700.998596,220.998489 
	C698.938904,220.998489 697.168518,220.998505 695.398132,220.998505 
	C495.608948,220.998093 295.819733,221.003708 96.030548,220.992813 
	C48.981113,220.990234 10.306261,187.549072 2.035226,139.788376 
	C1.950596,139.299667 1.816038,138.819626 1.352394,138.167770 
	C1.000000,94.312439 1.000000,50.624878 1.000000,6.468657 
M552.685425,39.112385 
	C549.046753,41.383644 545.408142,43.654903 541.803162,45.905117 
	C540.362366,44.891712 539.158386,43.999107 537.909973,43.173771 
	C519.283020,30.859095 498.983093,25.998203 476.999451,30.618984 
	C437.036896,39.018791 408.239746,75.438026 408.024750,117.487961 
	C407.895264,142.811981 407.996124,168.137192 408.012848,193.461853 
	C408.013794,194.894302 408.191315,196.326630 408.276215,197.602661 
	C431.740631,197.602661 454.789246,197.602661 477.999451,197.602661 
	C477.999451,195.379333 477.999481,193.551437 477.999481,191.723557 
	C477.999573,165.899048 478.038818,140.074432 477.973389,114.250107 
	C477.956146,107.434555 480.529022,102.166115 486.764648,99.275993 
	C496.618774,94.708717 506.946625,102.181862 506.978088,113.871849 
	C507.048492,140.029373 507.000397,166.187241 507.000580,192.344971 
	C507.000610,194.114838 507.000580,195.884705 507.000580,197.644073 
	C530.656921,197.644073 553.704956,197.644073 576.999634,197.644073 
	C576.999634,195.473633 576.999634,193.657196 576.999634,191.840744 
	C576.999695,166.016235 577.045288,140.191589 576.969177,114.367317 
	C576.949097,107.561378 579.441528,102.264862 585.658508,99.324753 
	C595.487488,94.676460 605.939880,102.103203 605.975159,113.754723 
	C606.054504,139.912201 606.000366,166.070099 606.000488,192.227829 
	C606.000488,194.008942 606.000427,195.790070 606.000427,197.685486 
	C629.573120,197.685486 652.620728,197.685486 675.999573,197.685486 
	C675.999573,195.735367 675.999573,194.096512 675.999573,192.457657 
	C675.999512,168.299255 676.365479,144.132507 675.815491,119.986618 
	C675.601868,110.605087 674.362427,100.975227 671.808533,91.963417 
	C656.820068,39.073490 600.785889,14.108824 552.685425,39.112385 
M194.996475,195.273026 
	C194.996475,172.994186 194.996475,150.715363 194.996475,128.000610 
	C192.692581,128.000610 190.900299,128.000626 189.108017,128.000610 
	C163.109985,128.000443 137.111877,127.966728 111.113983,128.023407 
	C104.502525,128.037811 99.366112,125.522552 96.425117,119.560486 
	C91.611023,109.801216 98.947876,99.076340 110.521179,99.032349 
	C136.852127,98.932243 163.183731,98.999886 189.515060,98.999352 
	C191.268799,98.999321 193.022537,98.999352 194.988403,98.999352 
	C194.988403,75.954803 194.990402,53.637272 194.978104,31.319748 
	C194.977753,30.692587 194.824600,30.065514 194.706284,29.159544 
	C193.583298,29.101669 192.616287,29.008396 191.649277,29.008337 
	C165.651306,29.006731 139.651016,28.807909 113.656197,29.097042 
	C97.547272,29.276215 82.441658,33.738003 68.498047,41.874432 
	C36.928108,60.296227 20.331562,95.719780 27.577740,129.101776 
	C36.011841,167.956360 70.546997,196.641006 111.615868,197.801117 
	C138.259384,198.553726 164.940445,198.000122 191.604385,197.923126 
	C192.730515,197.919876 193.853455,196.817169 194.996475,195.273026 
M385.999512,163.500000 
	C385.999390,148.668549 386.051056,133.836868 385.985229,119.005714 
	C385.912079,102.525146 381.860229,87.050766 373.807617,72.666832 
	C355.761505,40.431973 319.687134,23.224615 285.763550,30.615467 
	C246.954269,39.070755 218.268600,73.704033 217.192825,114.748047 
	C216.477051,142.056625 217.076401,169.399704 217.106583,196.727325 
	C217.106903,197.010010 217.370941,197.292404 217.563568,197.678558 
	C240.580627,197.678558 263.631622,197.678558 286.999481,197.678558 
	C286.999481,195.556793 286.999481,193.746902 286.999512,191.937012 
	C286.999634,165.940598 287.023651,139.944153 286.983459,113.947784 
	C286.973206,107.326668 289.595337,102.226616 295.588684,99.355812 
	C305.401428,94.655510 315.934967,102.050804 315.972961,113.684326 
	C316.058350,139.847122 316.000214,166.010361 316.000519,192.173416 
	C316.000519,193.959824 316.000519,195.746246 316.000519,197.699493 
	C339.538208,197.699493 362.589050,197.699493 385.999512,197.699493 
	C385.999512,186.435364 385.999512,175.467682 385.999512,163.500000 
z"/>
<path fill="#054891" opacity="1.000000" stroke="none" 
	d="
M725.107910,120.792381 
	C723.788330,68.960602 753.391113,26.182959 800.291870,11.633761 
	C815.669128,6.863554 831.343018,5.686384 847.194885,8.323241 
	C850.049683,8.798132 853.145081,10.509704 855.222534,12.566338 
	C880.450684,37.541286 905.574707,62.622936 930.508728,87.891113 
	C932.989075,90.404671 935.021606,94.160110 935.610840,97.620331 
	C944.999634,152.759384 909.211365,206.338547 854.627869,219.240463 
	C796.541321,232.970398 737.478760,194.063858 727.001770,135.122589 
	C726.186951,130.538391 725.744080,125.888062 725.107910,120.792381 
M872.580261,187.061569 
	C874.561768,185.840286 876.543274,184.619003 878.210205,183.591583 
	C872.839478,177.991882 868.979797,173.967651 865.686279,170.533722 
	C861.416565,174.579086 857.282654,178.495758 853.831421,181.765656 
	C857.482849,185.831818 861.213135,189.985809 865.807007,195.101471 
	C868.057129,192.396301 870.065857,189.981339 872.580261,187.061569 
M834.540710,138.902359 
	C833.072693,138.678101 831.014526,137.724091 830.236694,138.353195 
	C826.407043,141.450455 822.916992,144.967667 820.166443,147.534683 
	C824.747375,152.485550 828.612488,156.662796 831.754028,160.057983 
	C835.755676,156.351044 839.847046,152.561035 844.655640,148.106598 
	C841.424988,145.180603 838.235229,142.291641 834.540710,138.902359 
M891.932129,142.426743 
	C889.670776,144.331818 887.409485,146.236893 885.942810,147.472488 
	C890.657837,152.540436 894.537537,156.710510 897.731445,160.143494 
	C901.816589,156.462830 905.964233,152.725845 909.656860,149.398819 
	C905.712891,145.117401 901.932678,141.013733 896.980530,135.637894 
	C895.342773,137.902649 893.888245,139.914062 891.932129,142.426743 
M782.017395,175.579346 
	C786.588928,171.956879 791.160522,168.334427 795.396851,164.977615 
	C790.744507,160.035690 786.921448,155.974686 783.815979,152.675995 
	C779.481689,156.692749 775.305359,160.563126 770.842163,164.699341 
	C774.366211,168.145370 777.923584,171.624054 782.017395,175.579346 
M804.896729,166.518311 
	C808.361694,170.263870 811.826599,174.009445 814.454712,176.850403 
	C819.462524,172.213379 823.636597,168.348373 827.011902,165.222992 
	C823.298889,161.272797 819.480896,157.210876 815.017456,152.462311 
	C812.294495,155.474777 809.434326,158.474777 806.785950,161.651291 
	C805.752258,162.891037 805.194702,164.527725 804.896729,166.518311 
M848.360046,176.920715 
	C852.234375,172.904663 856.108765,168.888611 859.807312,165.054810 
	C855.870850,160.977493 851.998047,156.966125 848.638123,153.485962 
	C844.399719,157.545807 840.287720,161.484650 836.555176,165.060013 
	C840.184509,168.941986 843.914429,172.931503 848.360046,176.920715 
M887.068176,159.426971 
	C885.419067,157.172455 883.769897,154.917938 882.723145,153.486908 
	C877.209717,158.453461 873.062256,162.189560 869.785278,165.141525 
	C873.786377,169.444305 877.661804,173.611862 880.817810,177.005768 
	C884.764099,173.364990 888.863464,169.583008 893.826843,165.003876 
	C891.689941,163.270782 889.631409,161.601227 887.068176,159.426971 
M799.017395,192.579346 
	C803.588928,188.956833 808.160461,185.334305 812.396606,181.977524 
	C807.744385,177.035782 803.921326,172.974777 800.815918,169.676056 
	C796.481689,173.692734 792.305359,177.563126 787.842163,181.699326 
	C791.366211,185.145370 794.923584,188.624054 799.017395,192.579346 
M836.054260,189.587738 
	C838.981689,186.955978 841.909119,184.324234 844.577881,181.925049 
	C839.842407,176.990723 835.981323,172.967545 832.684387,169.532196 
	C828.415894,173.577667 824.282471,177.495148 820.831299,180.766037 
	C824.482849,184.832245 828.213379,188.986481 832.083984,193.296600 
	C833.392456,192.085999 834.471375,191.087814 836.054260,189.587738 
M773.074402,77.433517 
	C770.730713,75.177315 768.387024,72.921112 766.763916,71.358574 
	C762.167786,75.484695 758.013184,79.214439 753.992310,82.824158 
	C758.093262,87.039001 761.981262,91.034920 765.272888,94.417961 
	C769.492493,90.365982 773.599243,86.422340 778.451843,81.762512 
	C776.977478,80.605141 775.278625,79.271530 773.074402,77.433517 
M868.418213,67.980728 
	C872.153625,71.889099 875.888977,75.797478 878.860229,78.906372 
	C883.795654,74.422203 887.926086,70.669388 891.778015,67.169662 
	C887.809265,63.006004 883.961548,58.969318 879.564453,54.356289 
	C875.623779,58.814766 871.850830,63.083523 868.418213,67.980728 
M772.401855,63.955730 
	C771.849426,65.418953 770.401428,67.659653 770.888428,68.220558 
	C774.316589,72.169380 778.143005,75.772499 781.082092,78.722961 
	C785.814209,74.455444 789.959473,70.717201 793.863525,67.196442 
	C789.835632,62.993561 785.977600,58.967903 781.347168,54.136345 
	C778.440308,57.345219 775.675293,60.397465 772.401855,63.955730 
M803.079773,65.643242 
	C806.849609,69.912086 810.619446,74.180931 814.054138,78.070251 
	C818.646118,73.541779 822.699646,69.544357 826.170166,66.121819 
	C822.578308,62.162167 818.828247,58.028076 814.484680,53.239666 
	C810.658325,57.312443 807.039551,61.164368 803.079773,65.643242 
M867.044189,41.401897 
	C865.580933,40.849457 863.340210,39.401432 862.779297,39.888348 
	C858.830505,43.316586 855.227478,47.143101 852.277039,50.082199 
	C856.544373,54.814381 860.282532,58.959728 863.803406,62.864101 
	C868.006775,58.835815 872.032410,54.977779 876.863892,50.347519 
	C873.654724,47.440319 870.602539,44.675274 867.044189,41.401897 
M840.598145,53.044262 
	C841.150574,51.581036 842.598572,49.340340 842.111572,48.779457 
	C838.683411,44.830589 834.856995,41.227509 831.917725,38.276905 
	C827.185608,42.544434 823.040405,46.282700 819.136353,49.803444 
	C823.164307,54.006496 827.022339,58.032215 831.653015,62.864193 
	C834.559998,59.654995 837.324890,56.602631 840.598145,53.044262 
M802.550232,59.089523 
	C805.602478,56.324379 808.654724,53.559235 811.051636,51.387753 
	C806.370972,46.504642 802.430969,42.394302 799.082153,38.900616 
	C795.167297,42.444027 791.029053,46.189674 786.286682,50.482121 
	C789.745605,53.747814 793.213257,56.606407 796.156372,59.929550 
	C798.586792,62.673801 800.209717,61.927742 802.550232,59.089523 
M856.588440,137.053665 
	C857.799744,135.752884 859.011047,134.452087 859.317261,134.123230 
	C855.155640,129.581635 851.313110,125.388275 848.218872,122.011566 
	C844.290039,125.736351 840.245728,129.570541 836.848938,132.790878 
	C840.451843,136.791061 844.187561,140.938705 848.353516,145.564041 
	C851.047668,142.773254 853.564514,140.166153 856.588440,137.053665 
M820.420593,82.017349 
	C824.043091,86.588890 827.665588,91.160439 831.022461,95.396782 
	C835.964233,90.744453 840.025208,86.921349 843.323914,83.815872 
	C839.307312,79.481705 835.436951,75.305344 831.158875,70.689102 
	C827.755676,74.268250 824.326538,77.874672 820.420593,82.017349 
M907.607605,81.967194 
	C904.356628,78.268860 901.105713,74.570526 898.535278,71.646400 
	C893.169189,76.473984 889.018616,80.207985 884.970459,83.849876 
	C889.073120,88.047920 892.969849,92.035324 897.713684,96.889473 
	C901.265381,93.001587 904.774719,89.281921 908.089539,85.396294 
	C908.571228,84.831673 908.121765,83.472702 907.607605,81.967194 
M779.459412,109.097656 
	C780.927368,109.321915 782.985596,110.275963 783.763428,109.646912 
	C787.593079,106.549606 791.083130,103.032387 793.833679,100.465347 
	C789.252502,95.514534 785.387207,91.337418 782.245667,87.942375 
	C778.244507,91.649239 774.153381,95.439461 769.345459,99.893784 
	C772.575378,102.819176 775.765076,105.708206 779.459412,109.097656 
M850.540588,88.902344 
	C849.072632,88.678085 847.014404,87.724045 846.236572,88.353119 
	C842.406982,91.450447 838.916931,94.967651 836.166260,97.534737 
	C840.747437,102.485519 844.612732,106.662636 847.754150,110.057533 
	C851.755371,106.350624 855.846436,102.560402 860.654419,98.106056 
	C857.424683,95.180794 854.234924,92.291763 850.540588,88.902344 
M809.938416,107.580086 
	C811.159790,109.561523 812.381165,111.542969 813.409119,113.210587 
	C819.008362,107.839844 823.032410,103.979996 826.467102,100.685432 
	C822.421570,96.416069 818.504700,92.282417 815.332825,88.935081 
	C811.234314,92.549767 807.045166,96.244377 802.360901,100.375687 
	C804.885559,102.766922 807.159546,104.920700 809.938416,107.580086 
M871.401794,96.955765 
	C870.849426,98.418991 869.401489,100.659660 869.888489,101.220581 
	C873.316650,105.169388 877.143066,108.772469 880.082336,111.723076 
	C884.814392,107.455597 888.959595,103.717361 892.863464,100.196785 
	C888.835449,95.993736 884.977417,91.968071 880.346741,87.136185 
	C877.440125,90.345016 874.675232,93.397362 871.401794,96.955765 
M841.426758,73.067863 
	C843.331787,75.329185 845.236877,77.590508 846.443054,79.022247 
	C851.467468,74.268280 855.603882,70.354515 858.893799,67.241661 
	C855.408813,63.236599 851.740723,59.021133 848.283081,55.047447 
	C843.992554,59.161564 839.967651,63.021023 834.704834,68.067520 
	C836.902771,69.657097 838.914062,71.111725 841.426758,73.067863 
M757.411682,110.946342 
	C756.200378,112.247147 754.989075,113.547951 754.633789,113.929504 
	C758.815491,118.446686 762.678711,122.619751 765.789612,125.980217 
	C769.710083,122.263840 773.754578,118.429878 777.155823,115.205666 
	C773.550903,111.206284 769.813721,107.060112 765.375000,102.135704 
	C762.764221,105.043724 760.341431,107.742294 757.411682,110.946342 
M826.439758,124.080238 
	C827.938599,125.518867 829.437439,126.957497 830.140259,127.632095 
	C834.766113,123.369972 838.868347,119.590271 842.645630,116.110031 
	C838.774963,112.021973 834.940430,107.972015 831.819641,104.675934 
	C827.532043,108.730988 823.394714,112.643867 818.691406,117.092079 
	C820.992615,119.152229 823.465332,121.365875 826.439758,124.080238 
M787.079834,115.643219 
	C790.849670,119.912056 794.619507,124.180893 797.856323,127.846146 
	C802.508606,123.403313 806.626526,119.470749 810.074951,116.177551 
	C806.517517,112.222336 802.784241,108.071632 798.461060,103.265045 
	C794.658508,107.312576 791.039673,111.164513 787.079834,115.643219 
M876.581787,115.019226 
	C872.846497,111.110825 869.111145,107.202423 866.139832,104.093460 
	C861.204285,108.577744 857.073853,112.330566 853.222168,115.830139 
	C857.190857,119.993874 861.038574,124.030602 865.435608,128.643692 
	C869.378662,124.182449 873.150391,119.915077 876.581787,115.019226 
M886.392151,113.967773 
	C886.161621,115.077187 885.343750,116.695755 885.793884,117.215057 
	C889.229675,121.178368 892.912720,124.927338 895.769348,127.949974 
	C900.758423,123.469292 904.911865,119.739075 908.138062,116.841629 
	C904.173584,112.559158 900.310974,108.386642 896.171204,103.914833 
	C893.140320,107.035828 890.020569,110.248367 886.392151,113.967773 
M786.550171,141.089432 
	C789.602478,138.324371 792.654785,135.559311 795.052551,133.387192 
	C790.370239,128.505249 786.429138,124.396065 783.159058,120.986481 
	C779.234558,124.512154 775.081726,128.243011 770.172424,132.653442 
	C773.652832,135.842712 777.180664,138.637878 780.152161,141.934525 
	C782.603821,144.654404 784.209778,143.927643 786.550171,141.089432 
M823.587524,127.945839 
	C820.955688,125.018486 818.323853,122.091133 815.924805,119.422699 
	C810.990845,124.157883 806.967712,128.018967 803.532837,131.315521 
	C807.577881,135.583923 811.495239,139.717484 814.765930,143.168762 
	C818.832275,139.517151 822.986450,135.786575 827.296387,131.916153 
	C826.085876,130.607666 825.087708,129.528732 823.587524,127.945839 
M878.459290,142.097641 
	C879.927307,142.321899 881.985657,143.276062 882.763428,142.646957 
	C886.592957,139.549530 890.082825,136.032196 892.832825,133.465454 
	C888.252441,128.514633 884.387512,124.337181 881.245972,120.941605 
	C877.244568,124.649254 873.153748,128.439774 868.346069,132.894516 
	C871.575195,135.819183 874.764954,138.708160 878.459290,142.097641 
M772.566528,155.074356 
	C774.822693,152.730682 777.078918,150.386993 778.640930,148.764404 
	C774.514893,144.168213 770.785217,140.013535 767.175537,135.992569 
	C762.960876,140.093246 758.964905,143.981155 755.581848,147.272705 
	C759.635071,151.491516 763.579773,155.597321 768.240051,160.447998 
	C769.394653,158.977249 770.728333,157.278412 772.566528,155.074356 
z"/>
<path fill="#054891" opacity="1.000000" stroke="none" 
	d="
M825.655090,252.308563 
	C827.270386,246.365387 828.758484,240.785400 830.263123,235.143524 
	C832.858154,235.143524 835.152100,235.143524 837.727173,235.143524 
	C837.727173,244.962616 837.727173,254.702576 837.727173,264.725403 
	C835.974854,264.725403 834.226562,264.725403 832.100952,264.725403 
	C832.100952,258.575409 832.100952,252.322678 832.100952,246.069931 
	C831.711487,245.983307 831.322021,245.896683 830.932556,245.810043 
	C829.656494,250.281631 828.115051,254.699234 827.190674,259.242401 
	C826.489258,262.689789 824.960388,263.778534 821.403320,262.570984 
	C819.916931,257.070038 818.381531,251.387634 816.846130,245.705231 
	C816.624573,245.732330 816.403076,245.759430 816.181580,245.786530 
	C816.181580,251.947495 816.181580,258.108459 816.181580,264.633698 
	C814.355591,264.633698 812.859619,264.633698 811.173828,264.633698 
	C811.173828,254.919495 811.173828,245.308334 811.173828,235.344208 
	C813.713745,235.344208 816.266724,235.344208 819.159912,235.344208 
	C820.827698,241.613800 822.530701,248.015747 824.370361,254.931351 
	C824.892273,253.912491 825.210083,253.292114 825.655090,252.308563 
z"/>
<path fill="#054891" opacity="1.000000" stroke="none" 
	d="
M387.111328,234.057251 
	C392.627411,232.906967 395.082947,234.930161 395.870148,240.076172 
	C396.568542,244.641678 398.079285,249.082916 399.549652,254.820694 
	C401.674255,247.217209 403.479401,240.756882 405.320007,234.169769 
	C407.754028,234.169769 410.058929,234.169769 412.686401,234.169769 
	C412.686401,243.852539 412.686401,253.588928 412.686401,263.667023 
	C410.948181,263.667023 409.087341,263.667023 406.825623,263.667023 
	C406.825623,257.408966 406.825623,251.234024 406.825623,245.059067 
	C406.508942,245.005981 406.192261,244.952896 405.875580,244.899826 
	C404.630554,249.281616 403.131226,253.611618 402.224640,258.062347 
	C401.553802,261.355652 400.259308,262.843170 396.419952,261.603027 
	C394.927490,256.122589 393.352936,250.340820 391.778381,244.559036 
	C391.503387,244.614304 391.228363,244.669571 390.953369,244.724838 
	C390.953369,250.982147 390.953369,257.239471 390.953369,263.746033 
	C389.284546,263.746033 387.888519,263.746033 386.649231,263.746033 
	C386.649231,253.837875 386.649231,243.973145 387.111328,234.057251 
z"/>
<path fill="#074992" opacity="1.000000" stroke="none" 
	d="
M860.416809,235.080231 
	C863.876648,235.795731 867.317322,236.748001 866.939453,240.420364 
	C866.631653,243.412445 864.663452,246.233704 863.431519,249.130722 
	C862.976746,248.945633 862.522034,248.760559 862.067261,248.575470 
	C862.221680,248.857208 862.307617,249.295868 862.540588,249.397446 
	C866.899353,251.297699 869.979065,254.217361 868.734314,259.332001 
	C867.514526,264.343781 863.257324,264.996704 858.886108,265.006958 
	C854.102600,265.018158 849.319153,265.009491 844.265503,265.009491 
	C844.265503,254.997910 844.265503,245.294510 844.265503,235.044907 
	C849.489868,235.044907 854.733154,235.044907 860.416809,235.080231 
M862.581177,255.915817 
	C860.385620,249.686539 855.356567,251.041290 850.448364,251.208496 
	C850.448364,254.516434 850.448364,257.565216 850.448364,261.121155 
	C852.772278,261.121155 854.866638,261.120270 856.960938,261.121368 
	C860.027771,261.123016 862.635986,260.533508 862.581177,255.915817 
M857.114075,238.909027 
	C854.884155,238.909027 852.654236,238.909027 850.203857,238.909027 
	C850.203857,240.820541 850.161011,241.969070 850.215271,243.112976 
	C850.275330,244.379013 850.424255,245.640839 850.547241,247.051056 
	C852.877563,247.051056 855.033386,247.539276 856.785278,246.907501 
	C858.391418,246.328262 860.328003,244.719070 860.675842,243.227203 
	C860.942505,242.083511 858.961914,240.415863 857.114075,238.909027 
z"/>
<path fill="#044791" opacity="1.000000" stroke="none" 
	d="
M143.995728,240.121368 
	C143.995728,237.841888 143.995728,236.043961 143.995728,234.420166 
	C148.060974,233.078201 150.172195,234.610886 151.925751,237.820496 
	C154.629883,242.770020 157.756653,247.488831 160.716446,252.297928 
	C160.870483,252.548203 161.139389,252.727783 161.844910,253.423691 
	C161.844910,246.811737 161.844910,240.645905 161.844910,234.248123 
	C163.731522,234.248123 165.126740,234.248123 166.764603,234.248123 
	C166.764603,244.062119 166.764603,253.808167 166.764603,263.557739 
	C162.851273,265.053284 160.740417,263.323608 158.917236,259.994415 
	C156.091614,254.834702 152.844437,249.905853 149.105652,243.780960 
	C149.105652,251.174728 149.105652,257.245972 149.105652,263.659302 
	C147.442139,263.816589 146.041763,263.949005 143.995728,264.142456 
	C143.995728,256.127380 143.995728,248.365143 143.995728,240.121368 
z"/>
<path fill="#054891" opacity="1.000000" stroke="none" 
	d="
M342.026001,231.997849 
	C344.784973,231.720123 346.136322,232.083084 346.077271,235.043381 
	C345.888428,244.511719 346.007202,253.986206 346.007202,264.272766 
	C343.443726,263.818604 341.322357,263.442749 340.017395,263.211578 
	C335.988800,263.436371 332.179016,264.644714 329.194305,263.567291 
	C325.331299,262.172821 324.022125,254.775558 325.515015,249.101181 
	C326.682526,244.663589 329.277588,241.709167 333.980804,241.109650 
	C335.738373,240.885605 337.548401,241.073364 338.731445,241.073364 
	C339.779236,237.709610 340.668121,234.855927 342.026001,231.997849 
M332.157501,258.088928 
	C335.575806,260.753021 339.268311,259.436890 339.715027,255.159073 
	C340.052002,251.932083 339.781708,248.641678 339.781708,245.464767 
	C333.747009,244.497910 331.868042,245.706085 331.368134,250.975815 
	C331.170776,253.056244 331.707214,255.206268 332.157501,258.088928 
z"/>
<path fill="#0C4D94" opacity="1.000000" stroke="none" 
	d="
M7.235733,236.112854 
	C12.751261,232.326904 18.549383,232.814651 24.397602,233.344299 
	C27.631256,233.637161 28.828793,235.045578 27.622551,238.419434 
	C21.436138,237.499634 14.536773,233.973648 9.946321,241.543594 
	C7.264060,245.966812 7.773991,254.287674 10.948365,257.653107 
	C16.244736,263.268280 22.466469,261.061707 28.596966,259.251038 
	C29.771521,262.312683 28.852509,263.993530 25.472569,264.257141 
	C23.492186,264.411591 21.531820,264.896698 19.552279,264.974640 
	C12.634671,265.246918 6.249688,263.746460 3.482777,256.648285 
	C0.675407,249.446335 0.909601,242.274582 7.235733,236.112854 
z"/>
<path fill="#0A4B93" opacity="1.000000" stroke="none" 
	d="
M484.803101,262.980774 
	C478.498749,265.965088 473.843414,265.545563 470.264526,261.911163 
	C466.837036,258.430389 465.896240,251.759781 468.161194,246.997101 
	C470.179138,242.753815 474.712738,240.400772 479.755371,241.066315 
	C484.100372,241.639771 487.313629,243.987839 488.504242,248.162888 
	C490.027618,253.505035 489.782471,258.719055 484.803101,262.980774 
M473.294128,254.202209 
	C474.030853,257.165100 473.922241,261.151886 478.276489,260.960632 
	C482.393982,260.779755 482.807678,257.097260 482.922241,253.933640 
	C483.053528,250.308090 483.234222,245.620987 478.628754,245.169113 
	C473.124512,244.629059 473.867889,249.827362 473.294128,254.202209 
z"/>
<path fill="#0A4B93" opacity="1.000000" stroke="none" 
	d="
M230.179520,260.651611 
	C225.664917,251.093658 229.054947,242.237640 237.336624,241.073975 
	C242.805283,240.305603 247.442734,242.875229 249.388596,247.752075 
	C251.610596,253.320923 249.968933,260.061096 245.656494,263.074921 
	C240.994080,266.333344 235.228882,265.539124 230.179520,260.651611 
M243.279510,248.545197 
	C241.731781,247.340439 240.007050,245.017670 238.683273,245.227249 
	C237.187561,245.464081 235.407867,247.796555 234.920593,249.543686 
	C234.289841,251.805176 234.301834,254.552338 235.010498,256.780853 
	C235.545670,258.463745 237.916779,261.008514 238.922791,260.778046 
	C240.706589,260.369354 242.799683,258.400482 243.430542,256.613800 
	C244.201645,254.429947 243.600266,251.761475 243.279510,248.545197 
z"/>
<path fill="#0A4B93" opacity="1.000000" stroke="none" 
	d="
M623.060181,250.451965 
	C623.575439,256.541107 622.538269,261.526947 616.699829,264.077667 
	C610.690552,266.703033 604.236084,264.060608 601.923340,258.158600 
	C599.210510,251.235870 602.115173,243.755325 608.343567,241.623917 
	C615.044556,239.330780 620.622986,242.525864 623.060181,250.451965 
M616.595581,249.308655 
	C614.887085,247.863785 613.178650,246.418900 611.470154,244.974014 
	C610.141785,246.859634 608.103271,248.596939 607.670349,250.669617 
	C607.164612,253.091171 607.703796,255.922394 608.499573,258.342438 
	C608.888489,259.525177 610.887512,260.877167 612.155823,260.875244 
	C613.420593,260.873352 615.440186,259.501343 615.791931,258.328918 
	C616.573303,255.724518 616.518555,252.869278 616.595581,249.308655 
z"/>
<path fill="#0A4B93" opacity="1.000000" stroke="none" 
	d="
M693.279480,264.713379 
	C687.513489,264.763580 685.204041,263.007904 685.003845,258.829437 
	C684.762512,253.791367 687.442932,251.836136 696.294006,250.593918 
	C696.728027,244.323837 696.035889,244.009003 686.971313,246.388031 
	C685.833008,243.544617 686.903442,242.264053 689.796082,241.516663 
	C698.770020,239.197952 702.786804,242.372543 703.132019,251.660507 
	C703.258118,255.052490 700.822754,259.445068 705.730164,261.713409 
	C705.095215,262.773438 704.386780,264.774445 703.837952,264.731598 
	C701.380005,264.539612 698.967529,263.765564 695.698425,263.006500 
	C695.672729,263.026001 694.653931,263.801239 693.279480,264.713379 
M693.878113,254.983826 
	C693.073059,256.346100 692.066650,257.644836 691.602783,259.114807 
	C691.484924,259.488403 693.444641,261.129730 693.839600,260.937164 
	C694.983215,260.379639 696.441040,259.273712 696.590454,258.215607 
	C696.731384,257.217773 695.366699,256.007355 693.878113,254.983826 
z"/>
<path fill="#0A4B93" opacity="1.000000" stroke="none" 
	d="
M279.261505,262.594727 
	C276.406067,254.689636 278.876740,251.863388 289.151825,250.694534 
	C289.965546,244.458450 288.721069,243.862183 280.024780,246.454773 
	C278.959259,243.763306 279.637665,242.373734 282.621826,241.568985 
	C291.584808,239.151947 295.826660,242.327011 296.104767,251.473083 
	C296.214203,255.071991 294.140198,259.486359 298.815735,261.998047 
	C298.216553,262.954437 297.557678,264.759338 297.028381,264.722107 
	C294.573639,264.549408 292.154816,263.865753 288.781281,263.171143 
	C286.586884,265.513458 283.139557,266.161438 279.261505,262.594727 
M284.486847,259.161407 
	C285.639221,259.725464 286.791565,260.289520 287.943970,260.853577 
	C288.712280,259.135284 289.480621,257.417023 290.403961,255.352081 
	C286.552765,254.503296 284.645569,255.194748 284.486847,259.161407 
z"/>
<path fill="#0A4B93" opacity="1.000000" stroke="none" 
	d="
M182.281158,250.600189 
	C182.277878,244.181137 181.705292,243.941086 172.990936,246.435623 
	C171.935974,243.701385 172.721893,242.336105 175.679001,241.550720 
	C184.644318,239.169571 188.772644,242.346298 189.137650,251.528412 
	C189.272324,254.916199 186.752213,259.296051 191.630310,261.619751 
	C191.074554,262.704712 190.452774,264.746826 189.974152,264.713806 
	C187.519699,264.544434 185.102097,263.840942 182.829773,263.748199 
	C179.756592,263.772461 176.326691,264.624481 173.743683,263.511322 
	C172.187805,262.840820 171.132660,259.051605 171.301865,256.771393 
	C171.590927,252.876038 175.045868,251.684906 178.488190,251.119873 
	C179.628159,250.932755 180.797546,250.924957 182.281158,250.600189 
M177.306213,257.651062 
	C178.494766,258.727600 179.683319,259.804169 180.871887,260.880707 
	C181.633942,259.080139 182.396011,257.279572 183.158066,255.478989 
	C182.642807,255.101425 182.127533,254.723862 181.612259,254.346298 
	C180.268692,255.204544 178.925140,256.062775 177.306213,257.651062 
z"/>
<path fill="#0B4C94" opacity="1.000000" stroke="none" 
	d="
M33.776386,245.002075 
	C37.367146,240.775131 41.633938,239.770477 46.117241,241.954620 
	C51.322388,244.490448 51.255863,249.485672 50.996078,254.791748 
	C46.670033,254.791748 42.560123,254.791748 38.387852,254.791748 
	C39.468624,261.085724 42.145996,262.196075 51.616711,261.130249 
	C50.537327,262.278046 49.628933,264.142700 48.348614,264.448059 
	C43.126648,265.693634 37.842083,265.553131 34.250679,260.843567 
	C30.561089,256.005280 30.943541,250.632523 33.776386,245.002075 
M38.974907,250.956680 
	C40.923798,250.956680 42.872684,250.956680 44.821575,250.956680 
	C45.157028,250.530777 45.492481,250.104858 45.827934,249.678955 
	C44.429085,248.096207 43.030231,246.513458 41.631386,244.930710 
	C40.486774,246.830231 39.342167,248.729767 38.974907,250.956680 
z"/>
<path fill="#0B4C94" opacity="1.000000" stroke="none" 
	d="
M124.820755,254.887482 
	C121.375771,254.888092 118.397537,254.888092 115.372597,254.888092 
	C116.513428,261.100067 119.160324,262.192932 128.618744,261.128601 
	C127.540405,262.276459 126.652016,264.101288 125.353828,264.465515 
	C114.542892,267.498566 106.693344,259.984619 109.027084,249.039108 
	C110.232376,243.386139 115.265930,240.033951 120.937202,241.107361 
	C125.730316,242.014572 129.365173,247.921188 128.063461,253.111069 
	C127.869019,253.886322 126.248367,254.303864 124.820755,254.887482 
M121.207390,246.484558 
	C119.949364,246.069489 117.965179,244.954498 117.566719,245.367935 
	C116.266518,246.716873 115.544823,248.623413 114.334862,250.791626 
	C117.550537,250.791626 119.654663,250.791626 121.995476,250.791626 
	C121.837784,249.444626 121.707298,248.330032 121.207390,246.484558 
z"/>
<path fill="#0B4C94" opacity="1.000000" stroke="none" 
	d="
M352.169617,259.402374 
	C351.688721,255.623672 350.791626,252.128632 351.216522,248.802475 
	C351.859894,243.766327 356.105591,240.856415 361.228455,240.991104 
	C366.181305,241.121323 369.180450,243.988022 369.947357,249.460419 
	C370.173279,251.072449 370.142059,252.720505 370.250183,254.756592 
	C365.744690,254.756592 361.636230,254.756592 357.480774,254.756592 
	C358.317719,261.016327 361.132507,262.208588 370.569031,261.091675 
	C369.532959,262.244324 368.670380,264.131683 367.431152,264.424347 
	C361.607147,265.799896 356.147614,265.260162 352.169617,259.402374 
M362.167603,245.247055 
	C357.529175,244.215088 357.647888,247.655106 356.951324,250.744629 
	C359.409912,250.744629 361.634247,250.744629 364.357635,250.744629 
	C363.749298,248.839844 363.261353,247.312012 362.167603,245.247055 
z"/>
<path fill="#0B4C94" opacity="1.000000" stroke="none" 
	d="
M493.334534,247.895020 
	C496.338470,242.107498 500.540436,239.919952 505.546265,241.235535 
	C510.314911,242.488754 512.333984,246.602036 511.901642,254.802917 
	C507.740173,254.802917 503.530884,254.802917 499.287689,254.802917 
	C499.867554,261.368866 503.935455,261.845123 512.666992,261.199341 
	C511.653442,262.299988 510.831329,264.022858 509.596069,264.402954 
	C499.665283,267.458588 492.259674,261.569275 492.810181,251.244064 
	C492.863098,250.251648 493.052856,249.266525 493.334534,247.895020 
M500.831299,250.995438 
	C502.454651,250.995438 504.077972,250.995438 506.886322,250.995438 
	C505.559357,248.509750 504.780029,246.707565 503.639801,245.173599 
	C503.380249,244.824356 501.208160,245.167236 501.055878,245.596146 
	C500.452393,247.295944 500.300995,249.156265 500.831299,250.995438 
z"/>
<path fill="#0B4C94" opacity="1.000000" stroke="none" 
	d="
M527.965698,249.529083 
	C530.431030,242.635574 534.779541,239.850967 540.370850,241.195480 
	C545.407410,242.406586 547.665344,247.125305 546.662964,254.820221 
	C542.610168,254.820221 538.500244,254.820221 534.319641,254.820221 
	C535.574524,261.120422 538.094482,262.159302 547.624939,261.183838 
	C546.527161,262.318359 545.596558,264.173431 544.304993,264.473022 
	C534.205566,266.815887 526.187622,261.531128 527.965698,249.529083 
M540.955200,249.685806 
	C539.882019,248.102844 538.808899,246.519897 537.735779,244.936905 
	C536.247314,246.524719 534.758850,248.112518 533.270386,249.700333 
	C533.580872,250.158890 533.891357,250.617447 534.201843,251.076004 
	C536.420288,250.892075 538.638794,250.708130 540.955200,249.685806 
z"/>
<path fill="#034690" opacity="1.000000" stroke="none" 
	d="
M55.997673,250.057510 
	C55.997673,247.258362 55.997673,244.946411 55.997673,241.811508 
	C58.473484,242.164871 60.574234,242.464706 62.674984,242.764526 
	C62.669098,243.300629 62.663212,243.836731 62.657326,244.372818 
	C63.688702,243.630630 64.667786,242.798721 65.760551,242.161865 
	C70.365807,239.477997 74.602684,241.563858 74.893059,246.940247 
	C75.187439,252.390762 74.958031,257.869568 74.958031,263.667664 
	C72.937073,263.667664 71.078735,263.667664 68.285965,263.667664 
	C68.285965,257.758911 68.285965,251.947906 68.285965,245.287918 
	C58.165768,249.614532 64.381355,257.927002 61.566151,263.735352 
	C60.123615,263.735352 58.368420,263.735352 55.997673,263.735352 
	C55.997673,259.394073 55.997673,254.969391 55.997673,250.057510 
z"/>
<path fill="#034690" opacity="1.000000" stroke="none" 
	d="
M262.941345,243.603729 
	C265.768127,242.762329 268.987762,240.983704 270.756104,241.926666 
	C272.575195,242.896683 273.611877,246.458481 273.864990,248.998398 
	C274.339417,253.758575 274.001526,258.599731 274.001526,263.771149 
	C272.010834,263.864532 270.262726,263.946533 267.566772,264.072998 
	C267.566772,258.017609 267.566772,252.178268 267.566772,246.338928 
	C266.817993,246.210144 266.069214,246.081375 265.320435,245.952591 
	C257.587891,249.643982 263.176544,257.711761 260.569672,263.629333 
	C259.232483,263.629333 257.367371,263.629333 255.236572,263.629333 
	C255.236572,256.566833 255.236572,249.484009 255.236572,241.330353 
	C258.018311,242.274155 260.357605,243.067856 262.941345,243.603729 
z"/>
<path fill="#034690" opacity="1.000000" stroke="none" 
	d="
M647.002075,250.260483 
	C646.986206,254.714005 646.977600,258.702332 646.939758,262.690369 
	C646.936951,262.986328 646.724731,263.280334 646.528381,263.784454 
	C644.847473,263.784454 643.100464,263.784454 640.435547,263.784454 
	C640.435547,257.878693 640.435547,252.046783 640.435547,245.299667 
	C630.186951,249.535248 636.324585,257.808716 633.560913,263.674805 
	C632.137695,263.674805 630.271362,263.674805 628.202881,263.674805 
	C628.202881,256.484070 628.202881,249.409927 628.202881,241.535995 
	C630.738403,242.177765 632.890930,242.722595 634.673035,243.173645 
	C637.707031,242.620895 641.341064,240.816757 643.602600,241.894012 
	C645.548706,242.821030 645.929260,247.034744 647.002075,250.260483 
z"/>
<path fill="#0F4F95" opacity="1.000000" stroke="none" 
	d="
M681.147339,241.507751 
	C682.054932,242.815689 682.566223,243.991074 683.277405,245.626083 
	C678.280945,245.661957 672.850220,242.546509 670.580688,248.051605 
	C669.377930,250.969238 669.497925,256.071594 671.330811,258.166382 
	C673.398804,260.529846 678.062256,260.622314 682.439636,261.960022 
	C682.388184,262.043365 681.882019,263.985779 680.918213,264.248291 
	C672.318237,266.590820 662.090271,264.216095 663.027893,251.320740 
	C663.477844,245.132080 667.259460,241.477310 673.782227,241.067581 
	C676.089600,240.922638 678.427246,241.258728 681.147339,241.507751 
z"/>
<path fill="#0F4F95" opacity="1.000000" stroke="none" 
	d="
M202.122360,258.643127 
	C205.869095,259.834198 209.370483,260.682404 213.683517,261.727234 
	C213.397873,262.136902 212.799789,264.031067 211.784119,264.290527 
	C201.885101,266.819244 192.472244,263.123596 194.153519,250.191208 
	C195.118378,242.769424 206.759033,237.605988 212.755997,241.855606 
	C213.564362,242.428452 213.678177,243.981400 213.806381,244.305023 
	C209.461426,245.399445 204.468918,245.280807 202.060608,247.716904 
	C200.266556,249.531647 201.816391,254.652100 202.122360,258.643127 
z"/>
<path fill="#0F4F95" opacity="1.000000" stroke="none" 
	d="
M441.111267,265.021088 
	C435.374664,264.830200 431.222351,262.816986 429.654297,257.396271 
	C428.245667,252.526810 428.335510,247.626297 432.351532,243.961105 
	C436.578430,240.103485 441.899353,240.500153 447.022797,241.614288 
	C447.964417,241.819031 448.516113,243.816681 449.638062,245.610870 
	C444.298584,245.676910 438.865814,242.542130 436.590179,248.035217 
	C435.382507,250.950363 435.490997,256.045990 437.317596,258.148712 
	C439.373749,260.515686 444.032867,260.621490 448.413574,261.974609 
	C449.054626,264.466370 448.871216,264.599884 441.111267,265.021088 
z"/>
<path fill="#0F4F95" opacity="1.000000" stroke="none" 
	d="
M551.244995,246.591431 
	C555.293762,241.500534 562.745117,239.243256 567.926453,241.543671 
	C568.985596,242.013901 569.502014,243.706497 570.775574,245.582245 
	C565.281616,245.726440 559.692444,242.475311 557.403320,248.305832 
	C556.293762,251.132004 556.678162,255.391418 558.064819,258.161682 
	C560.411926,262.850555 565.195129,260.897705 570.231567,261.359772 
	C569.094543,262.464569 568.122925,264.243164 566.794739,264.569183 
	C554.559753,267.572266 547.310364,259.359406 551.244995,246.591431 
z"/>
<path fill="#054891" opacity="1.000000" stroke="none" 
	d="
M88.062492,241.930786 
	C89.333466,242.659317 90.160347,243.337448 90.987228,244.015564 
	C89.907593,244.913254 88.827957,245.810913 87.009239,247.323105 
	C87.009239,249.874786 86.777573,253.538788 87.126854,257.146545 
	C87.260658,258.528595 88.717072,259.785126 89.579529,261.093109 
	C90.036034,261.785431 90.824554,262.443970 90.873322,263.158081 
	C90.908676,263.675781 90.080116,264.521393 89.456589,264.771423 
	C85.477783,266.366974 81.232079,263.670532 80.906059,259.180389 
	C80.641457,255.536041 80.865631,251.858978 80.737694,248.201141 
	C80.623299,244.930374 80.323929,241.666077 80.097153,238.263519 
	C82.991577,238.003754 84.636063,237.856155 86.473251,237.691284 
	C86.871956,239.149780 87.245178,240.515076 88.062492,241.930786 
z"/>
<path fill="#054891" opacity="1.000000" stroke="none" 
	d="
M580.007202,249.224792 
	C580.007751,252.188828 579.712769,254.732574 580.122559,257.157196 
	C580.361206,258.568390 581.727173,259.790131 582.590271,261.094208 
	C583.047974,261.785706 583.827820,262.450989 583.873352,263.165619 
	C583.906372,263.683533 583.075867,264.523651 582.451843,264.772675 
	C578.472290,266.360748 574.234253,263.672058 573.907166,259.189911 
	C573.641479,255.550201 573.869690,251.877258 573.736694,248.224228 
	C573.617493,244.951584 573.304077,241.685989 573.066772,238.280746 
	C575.955322,238.020966 577.596741,237.873337 577.914978,237.844727 
	C580.185486,239.704773 581.691467,240.825684 583.045776,242.106934 
	C583.543152,242.577469 584.064636,243.556122 583.890869,244.072861 
	C583.651123,244.785706 582.707031,245.233536 582.166138,245.879868 
	C581.398132,246.797516 580.722595,247.792557 580.007202,249.224792 
z"/>
<path fill="#00448F" opacity="1.000000" stroke="none" 
	d="
M309.221771,255.953644 
	C309.221802,258.748688 309.221802,261.051819 309.221802,263.771027 
	C307.253876,263.867828 305.505005,263.953827 303.370605,264.058777 
	C303.370605,253.418091 303.370605,242.938385 303.370605,232.229385 
	C305.134155,232.229385 306.876221,232.229385 309.221741,232.229385 
	C309.221741,240.009460 309.221741,247.735596 309.221771,255.953644 
z"/>
<path fill="#00448F" opacity="1.000000" stroke="none" 
	d="
M517.002441,242.032349 
	C517.002441,238.573639 517.002441,235.608566 517.002441,232.248962 
	C518.949097,232.145233 520.690002,232.052460 522.831787,231.938339 
	C522.831787,242.584808 522.831787,253.056381 522.831787,263.764160 
	C521.051575,263.764160 519.303711,263.764160 517.002441,263.764160 
	C517.002441,256.672791 517.002441,249.599396 517.002441,242.032349 
z"/>
<path fill="#00448F" opacity="1.000000" stroke="none" 
	d="
M802.050964,235.004028 
	C803.423950,236.130188 805.072144,237.237228 805.101440,238.385529 
	C805.320862,246.998367 805.220947,255.619370 805.220947,264.616547 
	C803.237976,264.616547 801.376099,264.616547 799.009460,264.616547 
	C799.009460,255.443390 798.956177,246.206909 799.120056,236.974304 
	C799.131958,236.303192 800.720764,235.660110 802.050964,235.004028 
z"/>
<path fill="#034690" opacity="1.000000" stroke="none" 
	d="
M459.991638,248.255722 
	C459.497772,253.536255 459.223328,258.451843 458.925049,263.793884 
	C457.252838,263.874817 455.502014,263.959503 453.365509,264.062866 
	C453.365509,256.731079 453.365509,249.555161 453.365509,242.342987 
	C456.984253,242.175598 460.621460,242.007339 464.882385,241.810226 
	C464.952698,242.571686 465.090118,244.060165 465.191040,245.153183 
	C463.240143,246.225616 461.725555,247.058197 459.991638,248.255722 
z"/>
<path fill="#034690" opacity="1.000000" stroke="none" 
	d="
M93.996964,245.260590 
	C94.726776,243.860016 95.383736,242.210068 96.198753,242.127914 
	C99.326248,241.812622 102.504456,242.000275 105.944542,242.000275 
	C105.944542,242.682693 105.944542,244.115494 105.944542,245.418396 
	C95.248634,248.618103 102.964249,257.813171 99.134224,263.827576 
	C98.194267,263.872131 96.440079,263.955231 93.996712,264.071014 
	C93.996712,257.847107 93.996712,251.789200 93.996964,245.260590 
z"/>
<path fill="#034690" opacity="1.000000" stroke="none" 
	d="
M591.284546,242.000061 
	C593.891479,241.884659 596.096863,241.766495 598.870056,241.617905 
	C598.956055,242.578842 599.089478,244.069351 599.197998,245.282028 
	C588.475281,248.747055 595.660278,257.792480 592.521667,263.744141 
	C591.110474,263.744141 589.358154,263.744141 587.299561,263.744141 
	C587.299561,256.755371 587.299561,249.701523 587.299561,242.189133 
	C588.409912,242.129700 589.646423,242.063492 591.284546,242.000061 
z"/>
<path fill="#00448F" opacity="1.000000" stroke="none" 
	d="
M221.996002,263.991119 
	C219.289398,264.242279 217.821320,263.986389 217.934326,260.993622 
	C218.164673,254.893066 218.003281,248.777740 218.003281,242.337097 
	C220.059982,242.337097 221.911850,242.337097 224.206390,242.337097 
	C224.206390,249.010437 224.252625,255.589005 224.130615,262.164459 
	C224.119171,262.781799 223.046936,263.379486 221.996002,263.991119 
z"/>
<path fill="#00448F" opacity="1.000000" stroke="none" 
	d="
M659.221802,257.920593 
	C659.221802,260.047974 659.221802,261.688110 659.221802,263.661530 
	C657.151062,263.661530 655.293091,263.661530 653.215637,263.661530 
	C653.215637,256.550812 653.215637,249.515717 653.215637,242.242065 
	C655.104919,242.242065 656.842346,242.242065 659.221741,242.242065 
	C659.221741,247.313309 659.221741,252.373322 659.221802,257.920593 
z"/>
<path fill="#00448F" opacity="1.000000" stroke="none" 
	d="
M425.221741,258.895966 
	C425.146393,260.818085 425.071014,262.251892 424.989777,263.796753 
	C422.919556,263.796753 421.179108,263.796753 419.221252,263.796753 
	C419.221252,256.564240 419.221252,249.529327 419.221252,242.248779 
	C421.095947,242.248779 422.834747,242.248779 425.221741,242.248779 
	C425.221741,247.629837 425.221741,253.018738 425.221741,258.895966 
z"/>
<path fill="#125197" opacity="1.000000" stroke="none" 
	d="
M610.691284,236.482483 
	C609.114319,234.788620 607.777466,233.364410 606.348206,231.841751 
	C611.575012,230.608322 611.576599,230.609390 615.843933,238.545013 
	C613.757996,237.783707 612.344727,237.267929 610.691284,236.482483 
z"/>
<path fill="#00448F" opacity="1.000000" stroke="none" 
	d="
M658.718079,237.629974 
	C656.741882,237.917587 655.128540,237.917587 653.261963,237.917587 
	C653.261963,236.299927 653.261963,234.912292 653.261963,233.262512 
	C655.014771,233.262512 656.750732,233.262512 659.080933,233.262512 
	C659.080933,234.571075 659.080933,235.956726 658.718079,237.629974 
z"/>
<path fill="#00448F" opacity="1.000000" stroke="none" 
	d="
M421.153687,233.007568 
	C425.464630,232.320114 425.593964,234.577820 424.976379,237.679474 
	C423.194336,237.679474 421.328644,237.679474 418.304108,237.679474 
	C419.246674,235.839325 419.970917,234.425400 421.153687,233.007568 
z"/>
<path fill="#00448F" opacity="1.000000" stroke="none" 
	d="
M218.447418,233.379944 
	C220.411469,233.081909 222.028564,233.081909 223.929092,233.081909 
	C223.929092,234.687515 223.929092,236.071442 223.929092,237.727661 
	C222.194885,237.727661 220.448090,237.727661 218.100449,237.727661 
	C218.100449,236.461395 218.100449,235.069672 218.447418,233.379944 
z"/>
<path fill="#CACACA" opacity="1.000000" stroke="none" 
	d="
M553.017456,38.949577 
	C600.785889,14.108824 656.820068,39.073490 671.808533,91.963417 
	C674.362427,100.975227 675.601868,110.605087 675.815491,119.986618 
	C676.365479,144.132507 675.999512,168.299255 675.999573,192.457657 
	C675.999573,194.096512 675.999573,195.735367 675.999573,197.685486 
	C652.620728,197.685486 629.573120,197.685486 606.000427,197.685486 
	C606.000427,195.790070 606.000488,194.008942 606.000488,192.227829 
	C606.000366,166.070099 606.054504,139.912201 605.975159,113.754723 
	C605.939880,102.103203 595.487488,94.676460 585.658508,99.324753 
	C579.441528,102.264862 576.949097,107.561378 576.969177,114.367317 
	C577.045288,140.191589 576.999695,166.016235 576.999634,191.840744 
	C576.999634,193.657196 576.999634,195.473633 576.999634,197.644073 
	C553.704956,197.644073 530.656921,197.644073 507.000580,197.644073 
	C507.000580,195.884705 507.000610,194.114838 507.000580,192.344971 
	C507.000397,166.187241 507.048492,140.029373 506.978088,113.871849 
	C506.946625,102.181862 496.618774,94.708717 486.764648,99.275993 
	C480.529022,102.166115 477.956146,107.434555 477.973389,114.250107 
	C478.038818,140.074432 477.999573,165.899048 477.999481,191.723557 
	C477.999481,193.551437 477.999451,195.379333 477.999451,197.602661 
	C454.789246,197.602661 431.740631,197.602661 408.276215,197.602661 
	C408.191315,196.326630 408.013794,194.894302 408.012848,193.461853 
	C407.996124,168.137192 407.895264,142.811981 408.024750,117.487961 
	C408.239746,75.438026 437.036896,39.018791 476.999451,30.618984 
	C498.983093,25.998203 519.283020,30.859095 537.909973,43.173771 
	C539.158386,43.999107 540.362366,44.891712 541.803162,45.905117 
	C545.408142,43.654903 549.046753,41.383644 553.017456,38.949577 
z"/>
<path fill="#CACACA" opacity="1.000000" stroke="none" 
	d="
M194.987183,195.749847 
	C193.853455,196.817169 192.730515,197.919876 191.604385,197.923126 
	C164.940445,198.000122 138.259384,198.553726 111.615868,197.801117 
	C70.546997,196.641006 36.011841,167.956360 27.577740,129.101776 
	C20.331562,95.719780 36.928108,60.296227 68.498047,41.874432 
	C82.441658,33.738003 97.547272,29.276215 113.656197,29.097042 
	C139.651016,28.807909 165.651306,29.006731 191.649277,29.008337 
	C192.616287,29.008396 193.583298,29.101669 194.706284,29.159544 
	C194.824600,30.065514 194.977753,30.692587 194.978104,31.319748 
	C194.990402,53.637272 194.988403,75.954803 194.988403,98.999352 
	C193.022537,98.999352 191.268799,98.999321 189.515060,98.999352 
	C163.183731,98.999886 136.852127,98.932243 110.521179,99.032349 
	C98.947876,99.076340 91.611023,109.801216 96.425117,119.560486 
	C99.366112,125.522552 104.502525,128.037811 111.113983,128.023407 
	C137.111877,127.966728 163.109985,128.000443 189.108017,128.000610 
	C190.900299,128.000626 192.692581,128.000610 194.996475,128.000610 
	C194.996475,150.715363 194.996475,172.994186 194.987183,195.749847 
z"/>
<path fill="#CACACA" opacity="1.000000" stroke="none" 
	d="
M385.999512,164.000000 
	C385.999512,175.467682 385.999512,186.435364 385.999512,197.699493 
	C362.589050,197.699493 339.538208,197.699493 316.000519,197.699493 
	C316.000519,195.746246 316.000519,193.959824 316.000519,192.173416 
	C316.000214,166.010361 316.058350,139.847122 315.972961,113.684326 
	C315.934967,102.050804 305.401428,94.655510 295.588684,99.355812 
	C289.595337,102.226616 286.973206,107.326668 286.983459,113.947784 
	C287.023651,139.944153 286.999634,165.940598 286.999512,191.937012 
	C286.999481,193.746902 286.999481,195.556793 286.999481,197.678558 
	C263.631622,197.678558 240.580627,197.678558 217.563568,197.678558 
	C217.370941,197.292404 217.106903,197.010010 217.106583,196.727325 
	C217.076401,169.399704 216.477051,142.056625 217.192825,114.748047 
	C218.268600,73.704033 246.954269,39.070755 285.763550,30.615467 
	C319.687134,23.224615 355.761505,40.431973 373.807617,72.666832 
	C381.860229,87.050766 385.912079,102.525146 385.985229,119.005714 
	C386.051056,133.836868 385.999390,148.668549 385.999512,164.000000 
z"/>
<path fill="#C4C6C8" opacity="1.000000" stroke="none" 
	d="
M872.327393,187.313965 
	C870.065857,189.981339 868.057129,192.396301 865.807007,195.101471 
	C861.213135,189.985809 857.482849,185.831818 853.831421,181.765656 
	C857.282654,178.495758 861.416565,174.579086 865.686279,170.533722 
	C868.979797,173.967651 872.839478,177.991882 878.210205,183.591583 
	C876.543274,184.619003 874.561768,185.840286 872.327393,187.313965 
z"/>
<path fill="#C4C6C8" opacity="1.000000" stroke="none" 
	d="
M834.793091,139.152512 
	C838.235229,142.291641 841.424988,145.180603 844.655640,148.106598 
	C839.847046,152.561035 835.755676,156.351044 831.754028,160.057983 
	C828.612488,156.662796 824.747375,152.485550 820.166443,147.534683 
	C822.916992,144.967667 826.407043,141.450455 830.236694,138.353195 
	C831.014526,137.724091 833.072693,138.678101 834.793091,139.152512 
z"/>
<path fill="#C4C6C8" opacity="1.000000" stroke="none" 
	d="
M892.182861,142.176117 
	C893.888245,139.914062 895.342773,137.902649 896.980530,135.637894 
	C901.932678,141.013733 905.712891,145.117401 909.656860,149.398819 
	C905.964233,152.725845 901.816589,156.462830 897.731445,160.143494 
	C894.537537,156.710510 890.657837,152.540436 885.942810,147.472488 
	C887.409485,146.236893 889.670776,144.331818 892.182861,142.176117 
z"/>
<path fill="#C4C6C8" opacity="1.000000" stroke="none" 
	d="
M781.749207,175.341034 
	C777.923584,171.624054 774.366211,168.145370 770.842163,164.699341 
	C775.305359,160.563126 779.481689,156.692749 783.815979,152.675995 
	C786.921448,155.974686 790.744507,160.035690 795.396851,164.977615 
	C791.160522,168.334427 786.588928,171.956879 781.749207,175.341034 
z"/>
<path fill="#C4C6C8" opacity="1.000000" stroke="none" 
	d="
M804.658447,166.250961 
	C805.194702,164.527725 805.752258,162.891037 806.785950,161.651291 
	C809.434326,158.474777 812.294495,155.474777 815.017456,152.462311 
	C819.480896,157.210876 823.298889,161.272797 827.011902,165.222992 
	C823.636597,168.348373 819.462524,172.213379 814.454712,176.850403 
	C811.826599,174.009445 808.361694,170.263870 804.658447,166.250961 
z"/>
<path fill="#C4C6C8" opacity="1.000000" stroke="none" 
	d="
M848.002197,176.920868 
	C843.914429,172.931503 840.184509,168.941986 836.555176,165.060013 
	C840.287720,161.484650 844.399719,157.545807 848.638123,153.485962 
	C851.998047,156.966125 855.870850,160.977493 859.807312,165.054810 
	C856.108765,168.888611 852.234375,172.904663 848.002197,176.920868 
z"/>
<path fill="#C4C6C8" opacity="1.000000" stroke="none" 
	d="
M887.320557,159.679321 
	C889.631409,161.601227 891.689941,163.270782 893.826843,165.003876 
	C888.863464,169.583008 884.764099,173.364990 880.817810,177.005768 
	C877.661804,173.611862 873.786377,169.444305 869.785278,165.141525 
	C873.062256,162.189560 877.209717,158.453461 882.723145,153.486908 
	C883.769897,154.917938 885.419067,157.172455 887.320557,159.679321 
z"/>
<path fill="#C4C6C8" opacity="1.000000" stroke="none" 
	d="
M798.749207,192.341034 
	C794.923584,188.624054 791.366211,185.145370 787.842163,181.699326 
	C792.305359,177.563126 796.481689,173.692734 800.815918,169.676056 
	C803.921326,172.974777 807.744385,177.035782 812.396606,181.977524 
	C808.160461,185.334305 803.588928,188.956833 798.749207,192.341034 
z"/>
<path fill="#C4C6C8" opacity="1.000000" stroke="none" 
	d="
M835.802246,189.838684 
	C834.471375,191.087814 833.392456,192.085999 832.083984,193.296600 
	C828.213379,188.986481 824.482849,184.832245 820.831299,180.766037 
	C824.282471,177.495148 828.415894,173.577667 832.684387,169.532196 
	C835.981323,172.967545 839.842407,176.990723 844.577881,181.925049 
	C841.909119,184.324234 838.981689,186.955978 835.802246,189.838684 
z"/>
<path fill="#C4C6C8" opacity="1.000000" stroke="none" 
	d="
M773.327087,77.685715 
	C775.278625,79.271530 776.977478,80.605141 778.451843,81.762512 
	C773.599243,86.422340 769.492493,90.365982 765.272888,94.417961 
	C761.981262,91.034920 758.093262,87.039001 753.992310,82.824158 
	C758.013184,79.214439 762.167786,75.484695 766.763916,71.358574 
	C768.387024,72.921112 770.730713,75.177315 773.327087,77.685715 
z"/>
<path fill="#C4C6C8" opacity="1.000000" stroke="none" 
	d="
M868.248047,67.666504 
	C871.850830,63.083523 875.623779,58.814766 879.564453,54.356289 
	C883.961548,58.969318 887.809265,63.006004 891.778015,67.169662 
	C887.926086,70.669388 883.795654,74.422203 878.860229,78.906372 
	C875.888977,75.797478 872.153625,71.889099 868.248047,67.666504 
z"/>
<path fill="#C4C6C8" opacity="1.000000" stroke="none" 
	d="
M772.656067,63.702721 
	C775.675293,60.397465 778.440308,57.345219 781.347168,54.136345 
	C785.977600,58.967903 789.835632,62.993561 793.863525,67.196442 
	C789.959473,70.717201 785.814209,74.455444 781.082092,78.722961 
	C778.143005,75.772499 774.316589,72.169380 770.888428,68.220558 
	C770.401428,67.659653 771.849426,65.418953 772.656067,63.702721 
z"/>
<path fill="#C4C6C8" opacity="1.000000" stroke="none" 
	d="
M803.250244,65.329773 
	C807.039551,61.164368 810.658325,57.312443 814.484680,53.239666 
	C818.828247,58.028076 822.578308,62.162167 826.170166,66.121819 
	C822.699646,69.544357 818.646118,73.541779 814.054138,78.070251 
	C810.619446,74.180931 806.849609,69.912086 803.250244,65.329773 
z"/>
<path fill="#C4C6C8" opacity="1.000000" stroke="none" 
	d="
M867.297241,41.656067 
	C870.602539,44.675274 873.654724,47.440319 876.863892,50.347519 
	C872.032410,54.977779 868.006775,58.835815 863.803406,62.864101 
	C860.282532,58.959728 856.544373,54.814381 852.277039,50.082199 
	C855.227478,47.143101 858.830505,43.316586 862.779297,39.888348 
	C863.340210,39.401432 865.580933,40.849457 867.297241,41.656067 
z"/>
<path fill="#C4C6C8" opacity="1.000000" stroke="none" 
	d="
M840.343994,53.297264 
	C837.324890,56.602631 834.559998,59.654995 831.653015,62.864193 
	C827.022339,58.032215 823.164307,54.006496 819.136353,49.803444 
	C823.040405,46.282700 827.185608,42.544434 831.917725,38.276905 
	C834.856995,41.227509 838.683411,44.830589 842.111572,48.779457 
	C842.598572,49.340340 841.150574,51.581036 840.343994,53.297264 
z"/>
<path fill="#C4C6C8" opacity="1.000000" stroke="none" 
	d="
M802.297729,59.343399 
	C800.209717,61.927742 798.586792,62.673801 796.156372,59.929550 
	C793.213257,56.606407 789.745605,53.747814 786.286682,50.482121 
	C791.029053,46.189674 795.167297,42.444027 799.082153,38.900616 
	C802.430969,42.394302 806.370972,46.504642 811.051636,51.387753 
	C808.654724,53.559235 805.602478,56.324379 802.297729,59.343399 
z"/>
<path fill="#C4C6C8" opacity="1.000000" stroke="none" 
	d="
M856.334900,137.306366 
	C853.564514,140.166153 851.047668,142.773254 848.353516,145.564041 
	C844.187561,140.938705 840.451843,136.791061 836.848938,132.790878 
	C840.245728,129.570541 844.290039,125.736351 848.218872,122.011566 
	C851.313110,125.388275 855.155640,129.581635 859.317261,134.123230 
	C859.011047,134.452087 857.799744,135.752884 856.334900,137.306366 
z"/>
<path fill="#C4C6C8" opacity="1.000000" stroke="none" 
	d="
M820.658997,81.749222 
	C824.326538,77.874672 827.755676,74.268250 831.158875,70.689102 
	C835.436951,75.305344 839.307312,79.481705 843.323914,83.815872 
	C840.025208,86.921349 835.964233,90.744453 831.022461,95.396782 
	C827.665588,91.160439 824.043091,86.588890 820.658997,81.749222 
z"/>
<path fill="#C4C6C8" opacity="1.000000" stroke="none" 
	d="
M907.855347,82.224243 
	C908.121765,83.472702 908.571228,84.831673 908.089539,85.396294 
	C904.774719,89.281921 901.265381,93.001587 897.713684,96.889473 
	C892.969849,92.035324 889.073120,88.047920 884.970459,83.849876 
	C889.018616,80.207985 893.169189,76.473984 898.535278,71.646400 
	C901.105713,74.570526 904.356628,78.268860 907.855347,82.224243 
z"/>
<path fill="#C4C6C8" opacity="1.000000" stroke="none" 
	d="
M779.207153,108.847443 
	C775.765076,105.708206 772.575378,102.819176 769.345459,99.893784 
	C774.153381,95.439461 778.244507,91.649239 782.245667,87.942375 
	C785.387207,91.337418 789.252502,95.514534 793.833679,100.465347 
	C791.083130,103.032387 787.593079,106.549606 783.763428,109.646912 
	C782.985596,110.275963 780.927368,109.321915 779.207153,108.847443 
z"/>
<path fill="#C4C6C8" opacity="1.000000" stroke="none" 
	d="
M850.792908,89.152542 
	C854.234924,92.291763 857.424683,95.180794 860.654419,98.106056 
	C855.846436,102.560402 851.755371,106.350624 847.754150,110.057533 
	C844.612732,106.662636 840.747437,102.485519 836.166260,97.534737 
	C838.916931,94.967651 842.406982,91.450447 846.236572,88.353119 
	C847.014404,87.724045 849.072632,88.678085 850.792908,89.152542 
z"/>
<path fill="#C4C6C8" opacity="1.000000" stroke="none" 
	d="
M809.685913,107.327286 
	C807.159546,104.920700 804.885559,102.766922 802.360901,100.375687 
	C807.045166,96.244377 811.234314,92.549767 815.332825,88.935081 
	C818.504700,92.282417 822.421570,96.416069 826.467102,100.685432 
	C823.032410,103.979996 819.008362,107.839844 813.409119,113.210587 
	C812.381165,111.542969 811.159790,109.561523 809.685913,107.327286 
z"/>
<path fill="#C4C6C8" opacity="1.000000" stroke="none" 
	d="
M871.656067,96.702736 
	C874.675232,93.397362 877.440125,90.345016 880.346741,87.136185 
	C884.977417,91.968071 888.835449,95.993736 892.863464,100.196785 
	C888.959595,103.717361 884.814392,107.455597 880.082336,111.723076 
	C877.143066,108.772469 873.316650,105.169388 869.888489,101.220581 
	C869.401489,100.659660 870.849426,98.418991 871.656067,96.702736 
z"/>
<path fill="#C4C6C8" opacity="1.000000" stroke="none" 
	d="
M841.176086,72.817108 
	C838.914062,71.111725 836.902771,69.657097 834.704834,68.067520 
	C839.967651,63.021023 843.992554,59.161564 848.283081,55.047447 
	C851.740723,59.021133 855.408813,63.236599 858.893799,67.241661 
	C855.603882,70.354515 851.467468,74.268280 846.443054,79.022247 
	C845.236877,77.590508 843.331787,75.329185 841.176086,72.817108 
z"/>
<path fill="#C4C6C8" opacity="1.000000" stroke="none" 
	d="
M757.665161,110.693604 
	C760.341431,107.742294 762.764221,105.043724 765.375000,102.135704 
	C769.813721,107.060112 773.550903,111.206284 777.155823,115.205666 
	C773.754578,118.429878 769.710083,122.263840 765.789612,125.980217 
	C762.678711,122.619751 758.815491,118.446686 754.633789,113.929504 
	C754.989075,113.547951 756.200378,112.247147 757.665161,110.693604 
z"/>
<path fill="#C4C6C8" opacity="1.000000" stroke="none" 
	d="
M826.188965,123.829880 
	C823.465332,121.365875 820.992615,119.152229 818.691406,117.092079 
	C823.394714,112.643867 827.532043,108.730988 831.819641,104.675934 
	C834.940430,107.972015 838.774963,112.021973 842.645630,116.110031 
	C838.868347,119.590271 834.766113,123.369972 830.140259,127.632095 
	C829.437439,126.957497 827.938599,125.518867 826.188965,123.829880 
z"/>
<path fill="#C4C6C8" opacity="1.000000" stroke="none" 
	d="
M787.250366,115.329834 
	C791.039673,111.164513 794.658508,107.312576 798.461060,103.265045 
	C802.784241,108.071632 806.517517,112.222336 810.074951,116.177551 
	C806.626526,119.470749 802.508606,123.403313 797.856323,127.846146 
	C794.619507,124.180893 790.849670,119.912056 787.250366,115.329834 
z"/>
<path fill="#C4C6C8" opacity="1.000000" stroke="none" 
	d="
M876.751953,115.333466 
	C873.150391,119.915077 869.378662,124.182449 865.435608,128.643692 
	C861.038574,124.030602 857.190857,119.993874 853.222168,115.830139 
	C857.073853,112.330566 861.204285,108.577744 866.139832,104.093460 
	C869.111145,107.202423 872.846497,111.110825 876.751953,115.333466 
z"/>
<path fill="#C4C6C8" opacity="1.000000" stroke="none" 
	d="
M886.646484,113.714340 
	C890.020569,110.248367 893.140320,107.035828 896.171204,103.914833 
	C900.310974,108.386642 904.173584,112.559158 908.138062,116.841629 
	C904.911865,119.739075 900.758423,123.469292 895.769348,127.949974 
	C892.912720,124.927338 889.229675,121.178368 885.793884,117.215057 
	C885.343750,116.695755 886.161621,115.077187 886.646484,113.714340 
z"/>
<path fill="#C4C6C8" opacity="1.000000" stroke="none" 
	d="
M786.297729,141.343353 
	C784.209778,143.927643 782.603821,144.654404 780.152161,141.934525 
	C777.180664,138.637878 773.652832,135.842712 770.172424,132.653442 
	C775.081726,128.243011 779.234558,124.512154 783.159058,120.986481 
	C786.429138,124.396065 790.370239,128.505249 795.052551,133.387192 
	C792.654785,135.559311 789.602478,138.324371 786.297729,141.343353 
z"/>
<path fill="#C4C6C8" opacity="1.000000" stroke="none" 
	d="
M823.838562,128.197830 
	C825.087708,129.528732 826.085876,130.607666 827.296387,131.916153 
	C822.986450,135.786575 818.832275,139.517151 814.765930,143.168762 
	C811.495239,139.717484 807.577881,135.583923 803.532837,131.315521 
	C806.967712,128.018967 810.990845,124.157883 815.924805,119.422699 
	C818.323853,122.091133 820.955688,125.018486 823.838562,128.197830 
z"/>
<path fill="#C4C6C8" opacity="1.000000" stroke="none" 
	d="
M878.207031,141.847382 
	C874.764954,138.708160 871.575195,135.819183 868.346069,132.894516 
	C873.153748,128.439774 877.244568,124.649254 881.245972,120.941605 
	C884.387512,124.337181 888.252441,128.514633 892.832825,133.465454 
	C890.082825,136.032196 886.592957,139.549530 882.763428,142.646957 
	C881.985657,143.276062 879.927307,142.321899 878.207031,141.847382 
z"/>
<path fill="#C4C6C8" opacity="1.000000" stroke="none" 
	d="
M772.314270,155.326965 
	C770.728333,157.278412 769.394653,158.977249 768.240051,160.447998 
	C763.579773,155.597321 759.635071,151.491516 755.581848,147.272705 
	C758.964905,143.981155 762.960876,140.093246 767.175537,135.992569 
	C770.785217,140.013535 774.514893,144.168213 778.640930,148.764404 
	C777.078918,150.386993 774.822693,152.730682 772.314270,155.326965 
z"/>
<path fill="#F4F7FA" opacity="1.000000" stroke="none" 
	d="
M862.646179,256.293213 
	C862.635986,260.533508 860.027771,261.123016 856.960938,261.121368 
	C854.866638,261.120270 852.772278,261.121155 850.448364,261.121155 
	C850.448364,257.565216 850.448364,254.516434 850.448364,251.208496 
	C855.356567,251.041290 860.385620,249.686539 862.646179,256.293213 
z"/>
<path fill="#F1F5F9" opacity="1.000000" stroke="none" 
	d="
M857.547424,238.945145 
	C858.961914,240.415863 860.942505,242.083511 860.675842,243.227203 
	C860.328003,244.719070 858.391418,246.328262 856.785278,246.907501 
	C855.033386,247.539276 852.877563,247.051056 850.547241,247.051056 
	C850.424255,245.640839 850.275330,244.379013 850.215271,243.112976 
	C850.161011,241.969070 850.203857,240.820541 850.203857,238.909027 
	C852.654236,238.909027 854.884155,238.909027 857.547424,238.945145 
z"/>
<path fill="#ECF1F7" opacity="1.000000" stroke="none" 
	d="
M332.033508,257.706787 
	C331.707214,255.206268 331.170776,253.056244 331.368134,250.975815 
	C331.868042,245.706085 333.747009,244.497910 339.781708,245.464767 
	C339.781708,248.641678 340.052002,251.932083 339.715027,255.159073 
	C339.268311,259.436890 335.575806,260.753021 332.033508,257.706787 
z"/>
<path fill="#F5F7FA" opacity="1.000000" stroke="none" 
	d="
M473.272644,253.801147 
	C473.867889,249.827362 473.124512,244.629059 478.628754,245.169113 
	C483.234222,245.620987 483.053528,250.308090 482.922241,253.933640 
	C482.807678,257.097260 482.393982,260.779755 478.276489,260.960632 
	C473.922241,261.151886 474.030853,257.165100 473.272644,253.801147 
z"/>
<path fill="#F5F7FA" opacity="1.000000" stroke="none" 
	d="
M243.435959,248.923889 
	C243.600266,251.761475 244.201645,254.429947 243.430542,256.613800 
	C242.799683,258.400482 240.706589,260.369354 238.922791,260.778046 
	C237.916779,261.008514 235.545670,258.463745 235.010498,256.780853 
	C234.301834,254.552338 234.289841,251.805176 234.920593,249.543686 
	C235.407867,247.796555 237.187561,245.464081 238.683273,245.227249 
	C240.007050,245.017670 241.731781,247.340439 243.435959,248.923889 
z"/>
<path fill="#F4F7FA" opacity="1.000000" stroke="none" 
	d="
M616.700073,249.712463 
	C616.518555,252.869278 616.573303,255.724518 615.791931,258.328918 
	C615.440186,259.501343 613.420593,260.873352 612.155823,260.875244 
	C610.887512,260.877167 608.888489,259.525177 608.499573,258.342438 
	C607.703796,255.922394 607.164612,253.091171 607.670349,250.669617 
	C608.103271,248.596939 610.141785,246.859634 611.470154,244.974030 
	C613.178650,246.418900 614.887085,247.863785 616.700073,249.712463 
z"/>
<path fill="#E6EDF4" opacity="1.000000" stroke="none" 
	d="
M694.271240,254.937134 
	C695.366699,256.007355 696.731384,257.217773 696.590454,258.215607 
	C696.441040,259.273712 694.983215,260.379639 693.839600,260.937164 
	C693.444641,261.129730 691.484924,259.488403 691.602783,259.114807 
	C692.066650,257.644836 693.073059,256.346100 694.271240,254.937134 
z"/>
<path fill="#E6EDF4" opacity="1.000000" stroke="none" 
	d="
M284.377319,258.789490 
	C284.645569,255.194748 286.552765,254.503296 290.403961,255.352081 
	C289.480621,257.417023 288.712280,259.135284 287.943970,260.853577 
	C286.791565,260.289520 285.639221,259.725464 284.377319,258.789490 
z"/>
<path fill="#E6EDF4" opacity="1.000000" stroke="none" 
	d="
M177.443893,257.286041 
	C178.925140,256.062775 180.268692,255.204544 181.612259,254.346298 
	C182.127533,254.723862 182.642807,255.101425 183.158066,255.478989 
	C182.396011,257.279572 181.633942,259.080139 180.871887,260.880707 
	C179.683319,259.804169 178.494766,258.727600 177.443893,257.286041 
z"/>
<path fill="#F4F7FA" opacity="1.000000" stroke="none" 
	d="
M38.586235,250.792984 
	C39.342167,248.729767 40.486774,246.830231 41.631382,244.930710 
	C43.030231,246.513458 44.429085,248.096207 45.827934,249.678955 
	C45.492481,250.104858 45.157028,250.530777 44.821575,250.956680 
	C42.872684,250.956680 40.923798,250.956680 38.586235,250.792984 
z"/>
<path fill="#F4F7FA" opacity="1.000000" stroke="none" 
	d="
M121.392105,246.850006 
	C121.707298,248.330032 121.837784,249.444626 121.995476,250.791626 
	C119.654663,250.791626 117.550537,250.791626 114.334862,250.791626 
	C115.544823,248.623413 116.266518,246.716873 117.566719,245.367935 
	C117.965179,244.954498 119.949364,246.069489 121.392105,246.850006 
z"/>
<path fill="#F4F7FA" opacity="1.000000" stroke="none" 
	d="
M362.470520,245.515625 
	C363.261353,247.312012 363.749298,248.839844 364.357635,250.744629 
	C361.634247,250.744629 359.409912,250.744629 356.951324,250.744629 
	C357.647888,247.655106 357.529175,244.215088 362.470520,245.515625 
z"/>
<path fill="#F4F7FA" opacity="1.000000" stroke="none" 
	d="
M500.406677,250.976257 
	C500.300995,249.156265 500.452393,247.295944 501.055878,245.596146 
	C501.208160,245.167236 503.380249,244.824356 503.639801,245.173599 
	C504.780029,246.707565 505.559357,248.509750 506.886322,250.995438 
	C504.077972,250.995438 502.454651,250.995438 500.406677,250.976257 
z"/>
<path fill="#F4F7FA" opacity="1.000000" stroke="none" 
	d="
M540.906250,250.105011 
	C538.638794,250.708130 536.420288,250.892075 534.201843,251.076004 
	C533.891357,250.617447 533.580872,250.158890 533.270386,249.700333 
	C534.758850,248.112518 536.247314,246.524719 537.735779,244.936920 
	C538.808899,246.519897 539.882019,248.102844 540.906250,250.105011 
z"/>
</svg>